# MagicaVoxel @ Ephtracy

# material
mtllib fattyBoot.mtl
usemtl palette

# normals
vn -1 0 0
vn 1 0 0
vn 0 0 1
vn 0 0 -1
vn 0 -1 0
vn 0 1 0

# texcoords
vt 0.970703 0.5
vt 0.974609 0.5

# verts
v -3 0 3
v -3 0 -3
v -3 1 2
v -3 1 -3
v -3 2 3
v -3 2 2
v -3 4 2
v -3 4 -3
v -2 0 4
v -2 0 3
v -2 0 -3
v -2 0 -4
v -2 1 4
v -2 1 3
v -2 1 -3
v -2 1 -4
v -2 2 4
v -2 2 3
v -2 2 2
v -2 4 3
v -2 4 2
v -2 4 -3
v -2 4 -4
v 2 0 4
v 2 0 3
v 2 0 -3
v 2 0 -4
v 2 1 -3
v 2 1 -4
v 2 2 4
v 2 2 3
v 2 2 2
v 2 4 3
v 2 4 2
v 2 4 -3
v 2 4 -4
v 3 0 3
v 3 0 -3
v 3 1 2
v 3 1 -3
v 3 2 3
v 3 2 2
v 3 4 2
v 3 4 -3
v -2 0 4
v -2 1 4
v -2 2 4
v -1 1 4
v -1 2 4
v 0 1 4
v 0 2 4
v 1 1 4
v 1 2 4
v 2 0 4
v 2 2 4
v -3 0 3
v -3 2 3
v -2 0 3
v -2 1 3
v -2 2 3
v -2 4 3
v -1 2 3
v -1 3 3
v -1 4 3
v 0 2 3
v 1 2 3
v 1 3 3
v 1 4 3
v 2 0 3
v 2 2 3
v 2 4 3
v 3 0 3
v 3 2 3
v -3 2 2
v -3 4 2
v -2 2 2
v -2 4 2
v 2 2 2
v 2 4 2
v 3 2 2
v 3 4 2
v -3 0 -3
v -3 1 -3
v -3 4 -3
v -2 0 -3
v -2 1 -3
v -2 4 -3
v 2 0 -3
v 2 1 -3
v 2 4 -3
v 3 0 -3
v 3 1 -3
v 3 4 -3
v -2 0 -4
v -2 1 -4
v -2 4 -4
v 2 0 -4
v 2 1 -4
v 2 4 -4
v -2 0 4
v 2 0 4
v -3 0 3
v -2 0 3
v 2 0 3
v 3 0 3
v -3 0 -3
v -2 0 -3
v 2 0 -3
v 3 0 -3
v -2 0 -4
v 2 0 -4
v -2 2 4
v -1 2 4
v 0 2 4
v 1 2 4
v 2 2 4
v -3 2 3
v -2 2 3
v -1 2 3
v 0 2 3
v 1 2 3
v 2 2 3
v 3 2 3
v -3 2 2
v -2 2 2
v 2 2 2
v 3 2 2
v -2 4 3
v -1 4 3
v 1 4 3
v 2 4 3
v -3 4 2
v -2 4 2
v -1 4 2
v 1 4 2
v 2 4 2
v 3 4 2
v -3 4 -3
v -2 4 -3
v 2 4 -3
v 3 4 -3
v -2 4 -4
v 2 4 -4

# faces
f 3/1/1 2/1/1 1/1/1
f 4/1/1 2/1/1 3/1/1
f 5/1/1 3/1/1 1/1/1
f 6/2/1 4/2/1 3/2/1
f 6/1/1 3/1/1 5/1/1
f 7/2/1 4/2/1 6/2/1
f 8/2/1 4/2/1 7/2/1
f 13/1/1 10/1/1 9/1/1
f 14/1/1 10/1/1 13/1/1
f 15/1/1 12/1/1 11/1/1
f 16/1/1 12/1/1 15/1/1
f 17/2/1 14/2/1 13/2/1
f 18/2/1 14/2/1 17/2/1
f 20/2/1 19/2/1 18/2/1
f 21/2/1 19/2/1 20/2/1
f 22/2/1 16/2/1 15/2/1
f 23/2/1 16/2/1 22/2/1
f 26/1/2 27/1/2 28/1/2
f 28/1/2 27/1/2 29/1/2
f 24/1/2 25/1/2 30/1/2
f 30/1/2 25/1/2 31/1/2
f 31/2/2 32/2/2 33/2/2
f 33/2/2 32/2/2 34/2/2
f 28/2/2 29/2/2 35/2/2
f 35/2/2 29/2/2 36/2/2
f 37/1/2 38/1/2 39/1/2
f 39/1/2 38/1/2 40/1/2
f 37/1/2 39/1/2 41/1/2
f 39/2/2 40/2/2 42/2/2
f 41/1/2 39/1/2 42/1/2
f 42/2/2 40/2/2 43/2/2
f 43/2/2 40/2/2 44/2/2
f 48/1/3 46/1/3 45/1/3
f 48/2/3 47/2/3 46/2/3
f 49/2/3 47/2/3 48/2/3
f 50/1/3 48/1/3 45/1/3
f 50/1/3 49/1/3 48/1/3
f 51/1/3 49/1/3 50/1/3
f 52/1/3 50/1/3 45/1/3
f 52/2/3 51/2/3 50/2/3
f 53/2/3 51/2/3 52/2/3
f 54/1/3 52/1/3 45/1/3
f 54/1/3 53/1/3 52/1/3
f 55/1/3 53/1/3 54/1/3
f 58/1/3 57/1/3 56/1/3
f 59/1/3 57/1/3 58/1/3
f 60/1/3 57/1/3 59/1/3
f 62/2/3 61/2/3 60/2/3
f 63/2/3 61/2/3 62/2/3
f 64/2/3 61/2/3 63/2/3
f 65/2/3 63/2/3 62/2/3
f 66/2/3 63/2/3 65/2/3
f 67/1/3 64/1/3 63/1/3
f 67/2/3 63/2/3 66/2/3
f 68/1/3 64/1/3 67/1/3
f 70/2/3 67/2/3 66/2/3
f 70/2/3 68/2/3 67/2/3
f 71/2/3 68/2/3 70/2/3
f 72/1/3 70/1/3 69/1/3
f 73/1/3 70/1/3 72/1/3
f 76/2/3 75/2/3 74/2/3
f 77/2/3 75/2/3 76/2/3
f 80/2/3 79/2/3 78/2/3
f 81/2/3 79/2/3 80/2/3
f 82/1/4 83/1/4 85/1/4
f 83/2/4 84/2/4 86/2/4
f 85/1/4 83/1/4 86/1/4
f 86/2/4 84/2/4 87/2/4
f 88/1/4 89/1/4 91/1/4
f 89/2/4 90/2/4 92/2/4
f 91/1/4 89/1/4 92/1/4
f 92/2/4 90/2/4 93/2/4
f 94/1/4 95/1/4 97/1/4
f 95/2/4 96/2/4 98/2/4
f 97/1/4 95/1/4 98/1/4
f 98/2/4 96/2/4 99/2/4
f 103/1/5 101/1/5 100/1/5
f 104/1/5 101/1/5 103/1/5
f 106/1/5 103/1/5 102/1/5
f 106/1/5 105/1/5 104/1/5
f 106/1/5 104/1/5 103/1/5
f 107/1/5 105/1/5 106/1/5
f 108/1/5 105/1/5 107/1/5
f 109/1/5 105/1/5 108/1/5
f 110/1/5 108/1/5 107/1/5
f 111/1/5 108/1/5 110/1/5
f 112/2/6 113/2/6 118/2/6
f 113/1/6 114/1/6 119/1/6
f 118/2/6 113/2/6 119/2/6
f 114/2/6 115/2/6 120/2/6
f 119/1/6 114/1/6 120/1/6
f 115/1/6 116/1/6 121/1/6
f 120/2/6 115/2/6 121/2/6
f 121/1/6 116/1/6 122/1/6
f 117/1/6 118/1/6 124/1/6
f 124/1/6 118/1/6 125/1/6
f 122/1/6 123/1/6 126/1/6
f 126/1/6 123/1/6 127/1/6
f 128/2/6 129/2/6 133/2/6
f 129/1/6 130/1/6 134/1/6
f 133/2/6 129/2/6 134/2/6
f 130/2/6 131/2/6 135/2/6
f 134/1/6 130/1/6 135/1/6
f 135/2/6 131/2/6 136/2/6
f 133/2/6 134/2/6 138/2/6
f 136/2/6 137/2/6 138/2/6
f 135/2/6 136/2/6 138/2/6
f 134/2/6 135/2/6 138/2/6
f 132/2/6 133/2/6 138/2/6
f 138/2/6 137/2/6 139/2/6
f 139/2/6 137/2/6 140/2/6
f 140/2/6 137/2/6 141/2/6
f 139/2/6 140/2/6 142/2/6
f 142/2/6 140/2/6 143/2/6
