# MagicaVoxel @ Ephtracy

# material
mtllib Mace.mtl
usemtl palette

# normals
vn -1 0 0
vn 1 0 0
vn 0 0 1
vn 0 0 -1
vn 0 -1 0
vn 0 1 0

# texcoords
vt 0.845703 0.5
vt 0.876953 0.5
vt 0.951172 0.5
vt 0.978516 0.5

# verts
v -3 4 2
v -3 4 -0
v -3 4 -2
v -3 5 3
v -3 5 2
v -3 5 -2
v -3 5 -3
v -3 6 -0
v -3 6 -2
v -3 7 3
v -3 7 2
v -3 7 -1
v -3 7 -2
v -3 7 -3
v -3 8 2
v -3 8 -1
v -3 8 -2
v -3 11 1
v -3 11 -0
v -3 12 -0
v -3 12 -1
v -3 13 2
v -3 13 1
v -3 13 -1
v -3 15 1
v -3 15 -0
v -3 16 3
v -3 16 2
v -3 16 -1
v -3 16 -2
v -3 17 3
v -3 17 2
v -3 18 3
v -3 18 2
v -3 18 1
v -3 18 -0
v -3 18 -1
v -3 18 -2
v -3 19 2
v -3 19 -1
v -2 1 1
v -2 1 -0
v -2 1 -1
v -2 3 1
v -2 3 -0
v -2 4 3
v -2 4 2
v -2 4 1
v -2 4 -0
v -2 4 -1
v -2 4 -2
v -2 4 -3
v -2 5 4
v -2 5 3
v -2 5 2
v -2 5 -2
v -2 5 -3
v -2 5 -4
v -2 6 4
v -2 6 3
v -2 6 -3
v -2 6 -4
v -2 7 4
v -2 7 3
v -2 7 2
v -2 7 -2
v -2 7 -3
v -2 7 -4
v -2 8 3
v -2 8 2
v -2 8 -1
v -2 8 -2
v -2 8 -3
v -2 11 1
v -2 11 -0
v -2 12 -0
v -2 12 -1
v -2 12 -2
v -2 13 3
v -2 13 2
v -2 13 1
v -2 13 -1
v -2 16 3
v -2 16 2
v -2 16 -1
v -2 16 -2
v -2 18 3
v -2 18 2
v -2 18 -1
v -2 18 -2
v -2 19 3
v -2 19 2
v -2 19 -1
v -2 19 -2
v -1 0 1
v -1 0 -0
v -1 1 1
v -1 1 -0
v 2 12 1
v 2 12 -0
v 2 13 1
v 2 13 -0
v 0 0 1
v 0 0 -0
v 0 1 -0
v 0 1 -1
v 0 3 1
v 0 3 -0
v 0 3 -1
v 1 3 1
v 1 3 -1
v 1 4 3
v 1 4 2
v 1 4 1
v 1 4 -1
v 1 4 -2
v 1 4 -3
v 1 5 4
v 1 5 3
v 1 5 2
v 1 5 -2
v 1 5 -3
v 1 5 -4
v 1 6 4
v 1 6 3
v 1 6 -3
v 1 6 -4
v 1 7 4
v 1 7 3
v 1 7 2
v 1 7 -2
v 1 7 -3
v 1 7 -4
v 1 8 3
v 1 8 2
v 1 8 1
v 1 8 -1
v 1 8 -2
v 1 8 -3
v 1 9 -0
v 1 9 -1
v 1 11 1
v 1 11 -0
v 1 12 1
v 1 12 -0
v 1 12 -1
v 1 12 -2
v 1 13 3
v 1 13 2
v 1 14 -0
v 1 14 -1
v 1 15 3
v 1 15 2
v 1 15 -0
v 1 15 -1
v 1 16 3
v 1 16 2
v 1 16 -1
v 1 16 -2
v 1 18 3
v 1 18 2
v 1 18 -1
v 1 18 -2
v 1 19 3
v 1 19 2
v 1 19 -1
v 1 19 -2
v 2 4 2
v 2 4 1
v 2 4 -2
v 2 5 3
v 2 5 2
v 2 5 1
v 2 5 -0
v 2 5 -1
v 2 5 -2
v 2 5 -3
v 2 6 2
v 2 6 1
v 2 7 3
v 2 7 2
v 2 7 -0
v 2 7 -1
v 2 7 -2
v 2 7 -3
v 2 8 2
v 2 8 1
v 2 8 -2
v 2 15 2
v 2 15 -1
v 2 16 3
v 2 16 2
v 2 16 -0
v 2 16 -1
v 2 16 -2
v 2 17 -0
v 2 17 -1
v 2 18 3
v 2 18 2
v 2 18 -1
v 2 18 -2
v 2 19 2
v 2 19 -1
v 3 11 1
v 3 11 -0
v 3 12 1
v 3 12 -0
v 3 13 1
v 3 13 -0
v -2 5 4
v -2 6 4
v -2 7 4
v -1 5 4
v -1 6 4
v -1 7 4
v 0 5 4
v 0 6 4
v 0 7 4
v 1 5 4
v 1 6 4
v 1 7 4
v -3 5 3
v -3 7 3
v -3 16 3
v -3 17 3
v -3 18 3
v -2 4 3
v -2 5 3
v -2 6 3
v -2 7 3
v -2 8 3
v -2 13 3
v -2 16 3
v -2 17 3
v -2 18 3
v -2 19 3
v -1 5 3
v -1 7 3
v -1 8 3
v -1 13 3
v -1 16 3
v 0 5 3
v 0 7 3
v 0 15 3
v 0 17 3
v 1 4 3
v 1 5 3
v 1 6 3
v 1 7 3
v 1 8 3
v 1 13 3
v 1 15 3
v 1 16 3
v 1 17 3
v 1 18 3
v 1 19 3
v 2 5 3
v 2 7 3
v 2 16 3
v 2 18 3
v -3 4 2
v -3 5 2
v -3 7 2
v -3 8 2
v -3 13 2
v -3 16 2
v -3 18 2
v -3 19 2
v -2 4 2
v -2 5 2
v -2 7 2
v -2 8 2
v -2 13 2
v -2 16 2
v -2 18 2
v -2 19 2
v -1 8 2
v -1 9 2
v -1 12 2
v -1 13 2
v 0 9 2
v 0 12 2
v 1 4 2
v 1 5 2
v 1 7 2
v 1 8 2
v 1 13 2
v 1 15 2
v 1 16 2
v 1 18 2
v 1 19 2
v 2 4 2
v 2 5 2
v 2 7 2
v 2 8 2
v 2 15 2
v 2 16 2
v 2 18 2
v 2 19 2
v -3 11 1
v -3 13 1
v -2 1 1
v -2 3 1
v -2 4 1
v -2 11 1
v -2 13 1
v -1 0 1
v -1 1 1
v -1 3 1
v -1 4 1
v 0 0 1
v 0 3 1
v 1 3 1
v 1 4 1
v 1 11 1
v 1 12 1
v 2 11 1
v 2 12 1
v 2 13 1
v 3 11 1
v 3 12 1
v 3 13 1
v -3 11 -0
v -3 12 -0
v -2 11 -0
v -2 12 -0
v -1 0 -0
v -1 1 -0
v 0 0 -0
v 0 1 -0
v 1 11 -0
v 1 12 -0
v 2 11 -0
v 2 12 -0
v 2 13 -0
v 3 11 -0
v 3 12 -0
v 3 13 -0
v -3 12 -1
v -3 13 -1
v -3 16 -1
v -3 18 -1
v -3 19 -1
v -2 1 -1
v -2 4 -1
v -2 8 -1
v -2 12 -1
v -2 13 -1
v -2 16 -1
v -2 18 -1
v -2 19 -1
v -1 1 -1
v -1 3 -1
v -1 4 -1
v 0 1 -1
v 0 3 -1
v 0 8 -1
v 0 9 -1
v 0 12 -1
v 1 3 -1
v 1 4 -1
v 1 8 -1
v 1 9 -1
v 1 12 -1
v 1 15 -1
v 1 16 -1
v 1 18 -1
v 1 19 -1
v 2 15 -1
v 2 16 -1
v 2 18 -1
v 2 19 -1
v -3 4 -2
v -3 5 -2
v -3 7 -2
v -3 8 -2
v -3 16 -2
v -3 18 -2
v -2 4 -2
v -2 5 -2
v -2 7 -2
v -2 8 -2
v -2 12 -2
v -2 16 -2
v -2 18 -2
v -2 19 -2
v -1 14 -2
v -1 17 -2
v 0 14 -2
v 0 17 -2
v 1 4 -2
v 1 5 -2
v 1 7 -2
v 1 8 -2
v 1 12 -2
v 1 16 -2
v 1 18 -2
v 1 19 -2
v 2 4 -2
v 2 5 -2
v 2 7 -2
v 2 8 -2
v 2 16 -2
v 2 18 -2
v -3 5 -3
v -3 7 -3
v -2 4 -3
v -2 5 -3
v -2 6 -3
v -2 7 -3
v -2 8 -3
v -1 5 -3
v -1 7 -3
v -1 8 -3
v 0 7 -3
v 1 4 -3
v 1 5 -3
v 1 6 -3
v 1 7 -3
v 1 8 -3
v 2 5 -3
v 2 7 -3
v -2 5 -4
v -2 6 -4
v -2 7 -4
v -1 5 -4
v -1 6 -4
v 0 6 -4
v 0 7 -4
v 1 5 -4
v 1 6 -4
v 1 7 -4
v -1 0 1
v 0 0 1
v -1 0 -0
v 0 0 -0
v -2 1 1
v -1 1 1
v -2 1 -0
v -1 1 -0
v 0 1 -0
v -2 1 -1
v -1 1 -1
v 0 1 -1
v 0 3 1
v 1 3 1
v 0 3 -0
v 0 3 -1
v 1 3 -1
v -2 4 3
v 1 4 3
v -3 4 2
v -2 4 2
v -1 4 2
v 1 4 2
v 2 4 2
v -2 4 1
v -1 4 1
v 1 4 1
v 2 4 1
v -3 4 -0
v -2 4 -0
v -2 4 -1
v -1 4 -1
v 1 4 -1
v -3 4 -2
v -2 4 -2
v -1 4 -2
v 1 4 -2
v 2 4 -2
v -2 4 -3
v 1 4 -3
v -2 5 4
v -1 5 4
v 0 5 4
v 1 5 4
v -3 5 3
v -2 5 3
v -1 5 3
v 0 5 3
v 1 5 3
v 2 5 3
v -3 5 2
v -2 5 2
v 1 5 2
v 2 5 2
v -3 5 -2
v -2 5 -2
v 1 5 -2
v 2 5 -2
v -3 5 -3
v -2 5 -3
v -1 5 -3
v 1 5 -3
v 2 5 -3
v -2 5 -4
v -1 5 -4
v 1 5 -4
v -3 11 1
v -2 11 1
v 1 11 1
v 2 11 1
v 3 11 1
v -3 11 -0
v -2 11 -0
v 1 11 -0
v 2 11 -0
v 3 11 -0
v -3 12 -0
v -2 12 -0
v -3 12 -1
v -2 12 -1
v 0 12 -1
v 1 12 -1
v -2 12 -2
v 1 12 -2
v -2 13 3
v -1 13 3
v 1 13 3
v -3 13 2
v -2 13 2
v -1 13 2
v 1 13 2
v -3 13 1
v -2 13 1
v 1 15 2
v 2 15 2
v 1 15 -0
v 1 15 -1
v 2 15 -1
v -3 16 3
v -2 16 3
v 1 16 3
v 2 16 3
v -3 16 2
v -2 16 2
v 1 16 2
v 2 16 2
v -3 16 -1
v -2 16 -1
v 1 16 -1
v 2 16 -1
v -3 16 -2
v -2 16 -2
v 1 16 -2
v 2 16 -2
v -2 7 4
v -1 7 4
v 0 7 4
v 1 7 4
v -3 7 3
v -2 7 3
v -1 7 3
v 0 7 3
v 1 7 3
v 2 7 3
v -3 7 2
v -2 7 2
v 1 7 2
v 2 7 2
v -3 7 -2
v -2 7 -2
v 1 7 -2
v 2 7 -2
v -3 7 -3
v -2 7 -3
v -1 7 -3
v 0 7 -3
v 1 7 -3
v 2 7 -3
v -2 7 -4
v 0 7 -4
v 1 7 -4
v -2 8 3
v -1 8 3
v 1 8 3
v -3 8 2
v -2 8 2
v -1 8 2
v 1 8 2
v 2 8 2
v 1 8 1
v 2 8 1
v -3 8 -1
v -2 8 -1
v 0 8 -1
v 1 8 -1
v -3 8 -2
v -2 8 -2
v -1 8 -2
v 0 8 -2
v 1 8 -2
v 2 8 -2
v -2 8 -3
v -1 8 -3
v 1 8 -3
v 1 12 1
v 2 12 1
v 1 12 -0
v 2 12 -0
v 2 13 1
v 3 13 1
v 2 13 -0
v 3 13 -0
v -3 18 3
v -2 18 3
v 1 18 3
v 2 18 3
v -3 18 2
v -2 18 2
v 1 18 2
v 2 18 2
v -3 18 -1
v -2 18 -1
v 1 18 -1
v 2 18 -1
v -3 18 -2
v -2 18 -2
v 1 18 -2
v 2 18 -2
v -2 19 3
v 1 19 3
v -3 19 2
v -2 19 2
v 1 19 2
v 2 19 2
v -3 19 -1
v -2 19 -1
v 1 19 -1
v 2 19 -1
v -2 19 -2
v 1 19 -2

# faces
f 5/3/1 2/3/1 1/3/1
f 6/4/1 3/4/1 2/4/1
f 8/3/1 2/3/1 5/3/1
f 8/4/1 7/4/1 6/4/1
f 8/4/1 6/4/1 2/4/1
f 9/4/1 7/4/1 8/4/1
f 10/4/1 5/4/1 4/4/1
f 11/3/1 8/3/1 5/3/1
f 11/4/1 5/4/1 10/4/1
f 11/3/1 9/3/1 8/3/1
f 12/3/1 9/3/1 11/3/1
f 13/4/1 7/4/1 9/4/1
f 13/3/1 9/3/1 12/3/1
f 14/4/1 7/4/1 13/4/1
f 15/4/1 12/4/1 11/4/1
f 16/3/1 13/3/1 12/3/1
f 16/4/1 12/4/1 15/4/1
f 17/3/1 13/3/1 16/3/1
f 20/1/1 19/1/1 18/1/1
f 23/1/1 20/1/1 18/1/1
f 23/1/1 21/1/1 20/1/1
f 24/1/1 21/1/1 23/1/1
f 25/2/1 23/2/1 22/2/1
f 25/2/1 24/2/1 23/2/1
f 26/2/1 24/2/1 25/2/1
f 28/2/1 25/2/1 22/2/1
f 29/2/1 24/2/1 26/2/1
f 31/1/1 28/1/1 27/1/1
f 32/2/1 25/2/1 28/2/1
f 32/1/1 28/1/1 31/1/1
f 33/2/1 32/2/1 31/2/1
f 34/2/1 25/2/1 32/2/1
f 34/2/1 32/2/1 33/2/1
f 35/1/1 26/1/1 25/1/1
f 35/2/1 25/2/1 34/2/1
f 36/2/1 29/2/1 26/2/1
f 36/1/1 26/1/1 35/1/1
f 37/1/1 30/1/1 29/1/1
f 37/2/1 29/2/1 36/2/1
f 38/1/1 30/1/1 37/1/1
f 39/2/1 35/2/1 34/2/1
f 39/2/1 36/2/1 35/2/1
f 39/2/1 37/2/1 36/2/1
f 40/2/1 37/2/1 39/2/1
f 44/1/1 42/1/1 41/1/1
f 45/2/1 43/2/1 42/2/1
f 45/1/1 42/1/1 44/1/1
f 48/2/1 45/2/1 44/2/1
f 49/2/1 43/2/1 45/2/1
f 49/2/1 45/2/1 48/2/1
f 50/2/1 43/2/1 49/2/1
f 54/3/1 47/3/1 46/3/1
f 55/3/1 47/3/1 54/3/1
f 56/3/1 52/3/1 51/3/1
f 57/3/1 52/3/1 56/3/1
f 59/3/1 54/3/1 53/3/1
f 60/3/1 54/3/1 59/3/1
f 61/4/1 58/4/1 57/4/1
f 62/4/1 58/4/1 61/4/1
f 63/4/1 60/4/1 59/4/1
f 64/4/1 60/4/1 63/4/1
f 67/3/1 62/3/1 61/3/1
f 68/3/1 62/3/1 67/3/1
f 69/4/1 65/4/1 64/4/1
f 70/4/1 65/4/1 69/4/1
f 72/4/1 67/4/1 66/4/1
f 73/4/1 67/4/1 72/4/1
f 74/2/1 71/2/1 70/2/1
f 75/2/1 71/2/1 74/2/1
f 76/2/1 71/2/1 75/2/1
f 77/2/1 71/2/1 76/2/1
f 80/2/1 74/2/1 70/2/1
f 81/2/1 74/2/1 80/2/1
f 82/2/1 78/2/1 77/2/1
f 83/1/1 80/1/1 79/1/1
f 84/1/1 80/1/1 83/1/1
f 85/2/1 78/2/1 82/2/1
f 86/2/1 78/2/1 85/2/1
f 91/2/1 88/2/1 87/2/1
f 92/2/1 88/2/1 91/2/1
f 93/2/1 90/2/1 89/2/1
f 94/2/1 90/2/1 93/2/1
f 97/2/1 96/2/1 95/2/1
f 98/2/1 96/2/1 97/2/1
f 101/2/1 100/2/1 99/2/1
f 102/2/1 100/2/1 101/2/1
f 103/2/2 104/2/2 105/2/2
f 103/2/2 105/2/2 107/2/2
f 105/1/2 106/1/2 108/1/2
f 107/2/2 105/2/2 108/2/2
f 108/1/2 106/1/2 109/1/2
f 110/2/2 111/2/2 114/2/2
f 114/2/2 111/2/2 115/2/2
f 112/3/2 113/3/2 119/3/2
f 119/3/2 113/3/2 120/3/2
f 116/3/2 117/3/2 121/3/2
f 121/3/2 117/3/2 122/3/2
f 118/3/2 119/3/2 124/3/2
f 124/3/2 119/3/2 125/3/2
f 122/3/2 123/3/2 126/3/2
f 126/3/2 123/3/2 127/3/2
f 124/4/2 125/4/2 128/4/2
f 128/4/2 125/4/2 129/4/2
f 126/4/2 127/4/2 132/4/2
f 132/4/2 127/4/2 133/4/2
f 129/3/2 130/3/2 134/3/2
f 134/3/2 130/3/2 135/3/2
f 131/3/2 132/3/2 138/3/2
f 138/3/2 132/3/2 139/3/2
f 136/2/2 137/2/2 140/2/2
f 135/2/2 136/2/2 140/2/2
f 140/2/2 137/2/2 141/2/2
f 135/2/2 140/2/2 142/2/2
f 140/1/2 141/1/2 143/1/2
f 142/2/2 140/2/2 143/2/2
f 135/2/2 142/2/2 144/2/2
f 143/1/2 141/1/2 145/1/2
f 145/1/2 141/1/2 146/1/2
f 145/2/2 146/2/2 149/2/2
f 146/2/2 147/2/2 149/2/2
f 144/2/2 145/2/2 149/2/2
f 135/2/2 144/2/2 149/2/2
f 149/2/2 147/2/2 150/2/2
f 148/2/2 149/2/2 150/2/2
f 150/2/2 147/2/2 151/2/2
f 148/2/2 150/2/2 152/2/2
f 152/2/2 150/2/2 153/2/2
f 150/1/2 151/1/2 154/1/2
f 153/2/2 150/2/2 154/2/2
f 151/2/2 147/2/2 155/2/2
f 154/1/2 151/1/2 155/1/2
f 152/1/2 153/1/2 156/1/2
f 156/1/2 153/1/2 157/1/2
f 155/2/2 147/2/2 158/2/2
f 158/2/2 147/2/2 159/2/2
f 160/2/2 161/2/2 164/2/2
f 164/2/2 161/2/2 165/2/2
f 162/2/2 163/2/2 166/2/2
f 166/2/2 163/2/2 167/2/2
f 168/4/2 169/4/2 172/4/2
f 169/3/2 170/3/2 173/3/2
f 172/4/2 169/4/2 173/4/2
f 173/3/2 170/3/2 174/3/2
f 174/3/2 170/3/2 175/3/2
f 175/3/2 170/3/2 176/3/2
f 171/4/2 172/4/2 178/4/2
f 172/3/2 173/3/2 178/3/2
f 173/3/2 174/3/2 178/3/2
f 178/3/2 174/3/2 179/3/2
f 171/4/2 178/4/2 180/4/2
f 178/4/2 179/4/2 180/4/2
f 180/4/2 179/4/2 181/4/2
f 174/4/2 175/4/2 182/4/2
f 179/3/2 174/3/2 182/3/2
f 175/3/2 176/3/2 183/3/2
f 182/4/2 175/4/2 183/4/2
f 176/4/2 177/4/2 184/4/2
f 183/3/2 176/3/2 184/3/2
f 184/4/2 177/4/2 185/4/2
f 181/4/2 179/4/2 186/4/2
f 182/3/2 183/3/2 187/3/2
f 186/4/2 179/4/2 187/4/2
f 179/3/2 182/3/2 187/3/2
f 183/3/2 184/3/2 187/3/2
f 187/3/2 184/3/2 188/3/2
f 189/2/2 190/2/2 192/2/2
f 192/2/2 190/2/2 193/2/2
f 193/2/2 190/2/2 194/2/2
f 191/2/2 192/2/2 196/2/2
f 192/2/2 193/2/2 196/2/2
f 193/1/2 194/1/2 196/1/2
f 194/2/2 195/2/2 197/2/2
f 196/1/2 194/1/2 197/1/2
f 191/2/2 196/2/2 198/2/2
f 196/2/2 197/2/2 198/2/2
f 198/2/2 197/2/2 199/2/2
f 197/2/2 195/2/2 200/2/2
f 199/2/2 197/2/2 200/2/2
f 200/2/2 195/2/2 201/2/2
f 199/2/2 200/2/2 202/2/2
f 202/2/2 200/2/2 203/2/2
f 204/1/2 205/1/2 206/1/2
f 206/1/2 205/1/2 207/1/2
f 206/2/2 207/2/2 208/2/2
f 208/2/2 207/2/2 209/2/2
f 213/3/3 211/3/3 210/3/3
f 214/4/3 212/4/3 211/4/3
f 214/3/3 211/3/3 213/3/3
f 215/4/3 212/4/3 214/4/3
f 216/4/3 214/4/3 213/4/3
f 217/3/3 215/3/3 214/3/3
f 217/4/3 214/4/3 216/4/3
f 218/3/3 215/3/3 217/3/3
f 219/3/3 217/3/3 216/3/3
f 220/4/3 218/4/3 217/4/3
f 220/3/3 217/3/3 219/3/3
f 221/4/3 218/4/3 220/4/3
f 228/4/3 223/4/3 222/4/3
f 229/4/3 223/4/3 228/4/3
f 230/4/3 223/4/3 229/4/3
f 233/1/3 225/1/3 224/1/3
f 234/2/3 226/2/3 225/2/3
f 234/1/3 225/1/3 233/1/3
f 235/2/3 226/2/3 234/2/3
f 237/3/3 228/3/3 227/3/3
f 238/4/3 231/4/3 230/4/3
f 239/4/3 231/4/3 238/4/3
f 240/1/3 233/1/3 232/1/3
f 241/2/3 236/2/3 235/2/3
f 241/1/3 233/1/3 240/1/3
f 241/2/3 235/2/3 234/2/3
f 241/2/3 234/2/3 233/2/3
f 242/3/3 237/3/3 227/3/3
f 243/3/3 239/3/3 238/3/3
f 244/2/3 241/2/3 240/2/3
f 245/2/3 236/2/3 241/2/3
f 245/2/3 241/2/3 244/2/3
f 246/3/3 242/3/3 227/3/3
f 247/3/3 242/3/3 246/3/3
f 249/3/3 239/3/3 243/3/3
f 250/3/3 239/3/3 249/3/3
f 251/2/3 244/2/3 240/2/3
f 252/1/3 245/1/3 244/1/3
f 252/2/3 244/2/3 251/2/3
f 253/1/3 245/1/3 252/1/3
f 254/2/3 236/2/3 245/2/3
f 254/1/3 245/1/3 253/1/3
f 255/2/3 236/2/3 254/2/3
f 256/2/3 236/2/3 255/2/3
f 257/4/3 248/4/3 247/4/3
f 257/4/3 249/4/3 248/4/3
f 258/4/3 249/4/3 257/4/3
f 259/2/3 255/2/3 254/2/3
f 259/2/3 254/2/3 253/2/3
f 260/2/3 255/2/3 259/2/3
f 269/3/3 262/3/3 261/3/3
f 270/3/3 262/3/3 269/3/3
f 271/4/3 264/4/3 263/4/3
f 272/4/3 264/4/3 271/4/3
f 273/2/3 266/2/3 265/2/3
f 274/2/3 266/2/3 273/2/3
f 275/2/3 268/2/3 267/2/3
f 276/2/3 268/2/3 275/2/3
f 277/2/3 273/2/3 272/2/3
f 278/2/3 273/2/3 277/2/3
f 279/2/3 273/2/3 278/2/3
f 280/2/3 273/2/3 279/2/3
f 281/2/3 278/2/3 277/2/3
f 281/1/3 279/1/3 278/1/3
f 282/2/3 280/2/3 279/2/3
f 282/1/3 279/1/3 281/1/3
f 286/2/3 281/2/3 277/2/3
f 286/2/3 282/2/3 281/2/3
f 287/2/3 280/2/3 282/2/3
f 287/2/3 282/2/3 286/2/3
f 292/4/3 284/4/3 283/4/3
f 293/4/3 284/4/3 292/4/3
f 294/4/3 286/4/3 285/4/3
f 295/4/3 286/4/3 294/4/3
f 296/2/3 289/2/3 288/2/3
f 297/2/3 289/2/3 296/2/3
f 298/2/3 291/2/3 290/2/3
f 299/2/3 291/2/3 298/2/3
f 305/1/3 301/1/3 300/1/3
f 306/1/3 301/1/3 305/1/3
f 308/1/3 303/1/3 302/1/3
f 309/2/3 304/2/3 303/2/3
f 309/1/3 303/1/3 308/1/3
f 310/2/3 304/2/3 309/2/3
f 311/2/3 308/2/3 307/2/3
f 311/2/3 309/2/3 308/2/3
f 311/2/3 310/2/3 309/2/3
f 312/2/3 310/2/3 311/2/3
f 313/2/3 310/2/3 312/2/3
f 314/2/3 310/2/3 313/2/3
f 317/2/3 316/2/3 315/2/3
f 318/2/3 316/2/3 317/2/3
f 320/1/3 318/1/3 317/1/3
f 321/2/3 319/2/3 318/2/3
f 321/1/3 318/1/3 320/1/3
f 322/2/3 319/2/3 321/2/3
f 323/1/4 324/1/4 325/1/4
f 325/1/4 324/1/4 326/1/4
f 327/2/4 328/2/4 329/2/4
f 329/2/4 328/2/4 330/2/4
f 331/2/4 332/2/4 333/2/4
f 333/2/4 332/2/4 334/2/4
f 333/1/4 334/1/4 336/1/4
f 334/2/4 335/2/4 337/2/4
f 336/1/4 334/1/4 337/1/4
f 337/2/4 335/2/4 338/2/4
f 339/1/4 340/1/4 347/1/4
f 340/2/4 341/2/4 348/2/4
f 347/1/4 340/1/4 348/1/4
f 348/2/4 341/2/4 349/2/4
f 342/2/4 343/2/4 350/2/4
f 350/2/4 343/2/4 351/2/4
f 344/2/4 345/2/4 352/2/4
f 352/2/4 345/2/4 353/2/4
f 353/2/4 345/2/4 354/2/4
f 352/1/4 353/1/4 355/1/4
f 353/2/4 354/2/4 356/2/4
f 355/1/4 353/1/4 356/1/4
f 346/2/4 347/2/4 357/2/4
f 357/2/4 347/2/4 358/2/4
f 358/2/4 347/2/4 359/2/4
f 356/2/4 354/2/4 360/2/4
f 360/2/4 354/2/4 361/2/4
f 357/2/4 358/2/4 362/2/4
f 358/1/4 359/1/4 363/1/4
f 362/2/4 358/2/4 363/2/4
f 363/1/4 359/1/4 364/1/4
f 365/2/4 366/2/4 369/2/4
f 369/2/4 366/2/4 370/2/4
f 367/2/4 368/2/4 371/2/4
f 371/2/4 368/2/4 372/2/4
f 373/4/4 374/4/4 379/4/4
f 379/4/4 374/4/4 380/4/4
f 375/3/4 376/3/4 381/3/4
f 381/3/4 376/3/4 382/3/4
f 377/1/4 378/1/4 384/1/4
f 384/1/4 378/1/4 385/1/4
f 385/2/4 386/2/4 387/2/4
f 384/2/4 385/2/4 387/2/4
f 383/2/4 384/2/4 387/2/4
f 387/2/4 386/2/4 388/2/4
f 383/2/4 387/2/4 389/2/4
f 387/1/4 388/1/4 389/1/4
f 388/2/4 386/2/4 390/2/4
f 389/1/4 388/1/4 390/1/4
f 383/2/4 389/2/4 395/2/4
f 389/2/4 390/2/4 395/2/4
f 395/2/4 390/2/4 396/2/4
f 390/2/4 386/2/4 397/2/4
f 396/2/4 390/2/4 397/2/4
f 397/2/4 386/2/4 398/2/4
f 391/3/4 392/3/4 399/3/4
f 399/3/4 392/3/4 400/3/4
f 393/3/4 394/3/4 401/3/4
f 401/3/4 394/3/4 402/3/4
f 396/2/4 397/2/4 403/2/4
f 403/2/4 397/2/4 404/2/4
f 405/4/4 406/4/4 408/4/4
f 408/4/4 406/4/4 409/4/4
f 409/4/4 406/4/4 410/4/4
f 407/3/4 408/3/4 412/3/4
f 410/4/4 411/4/4 413/4/4
f 413/4/4 411/4/4 414/4/4
f 413/3/4 414/3/4 415/3/4
f 407/3/4 412/3/4 416/3/4
f 416/3/4 412/3/4 417/3/4
f 415/3/4 414/3/4 419/3/4
f 419/3/4 414/3/4 420/3/4
f 417/4/4 418/4/4 421/4/4
f 418/4/4 419/4/4 421/4/4
f 421/4/4 419/4/4 422/4/4
f 423/4/4 424/4/4 426/4/4
f 424/3/4 425/3/4 427/3/4
f 426/4/4 424/4/4 427/4/4
f 426/3/4 427/3/4 428/3/4
f 427/3/4 425/3/4 428/3/4
f 428/3/4 425/3/4 429/3/4
f 426/3/4 428/3/4 430/3/4
f 428/4/4 429/4/4 431/4/4
f 430/3/4 428/3/4 431/3/4
f 431/4/4 429/4/4 432/4/4
f 435/2/5 434/2/5 433/2/5
f 436/2/5 434/2/5 435/2/5
f 439/1/5 438/1/5 437/1/5
f 440/1/5 438/1/5 439/1/5
f 442/2/5 440/2/5 439/2/5
f 443/1/5 441/1/5 440/1/5
f 443/2/5 440/2/5 442/2/5
f 444/1/5 441/1/5 443/1/5
f 447/2/5 446/2/5 445/2/5
f 448/2/5 446/2/5 447/2/5
f 449/2/5 446/2/5 448/2/5
f 453/3/5 451/3/5 450/3/5
f 454/3/5 451/3/5 453/3/5
f 455/3/5 451/3/5 454/3/5
f 457/3/5 453/3/5 452/3/5
f 457/4/5 454/4/5 453/4/5
f 458/3/5 455/3/5 454/3/5
f 458/4/5 454/4/5 457/4/5
f 459/4/5 456/4/5 455/4/5
f 459/3/5 455/3/5 458/3/5
f 460/4/5 456/4/5 459/4/5
f 461/3/5 457/3/5 452/3/5
f 462/3/5 457/3/5 461/3/5
f 463/4/5 462/4/5 461/4/5
f 465/3/5 460/3/5 459/3/5
f 466/4/5 463/4/5 461/4/5
f 467/3/5 464/3/5 463/3/5
f 467/4/5 463/4/5 466/4/5
f 468/4/5 465/4/5 464/4/5
f 468/3/5 464/3/5 467/3/5
f 469/3/5 460/3/5 465/3/5
f 469/4/5 465/4/5 468/4/5
f 470/3/5 460/3/5 469/3/5
f 471/3/5 468/3/5 467/3/5
f 471/3/5 469/3/5 468/3/5
f 472/3/5 469/3/5 471/3/5
f 478/3/5 474/3/5 473/3/5
f 479/4/5 475/4/5 474/4/5
f 479/3/5 474/3/5 478/3/5
f 480/3/5 476/3/5 475/3/5
f 480/4/5 475/4/5 479/4/5
f 481/3/5 476/3/5 480/3/5
f 483/4/5 478/4/5 477/4/5
f 484/4/5 478/4/5 483/4/5
f 485/4/5 482/4/5 481/4/5
f 486/4/5 482/4/5 485/4/5
f 491/4/5 488/4/5 487/4/5
f 492/4/5 488/4/5 491/4/5
f 494/4/5 490/4/5 489/4/5
f 495/4/5 490/4/5 494/4/5
f 496/4/5 493/4/5 492/4/5
f 497/3/5 494/3/5 493/3/5
f 497/4/5 493/4/5 496/4/5
f 498/3/5 494/3/5 497/3/5
f 504/1/5 500/1/5 499/1/5
f 505/1/5 500/1/5 504/1/5
f 506/2/5 502/2/5 501/2/5
f 507/1/5 503/1/5 502/1/5
f 507/2/5 502/2/5 506/2/5
f 508/1/5 503/1/5 507/1/5
f 511/1/5 510/1/5 509/1/5
f 512/1/5 510/1/5 511/1/5
f 515/2/5 514/2/5 513/2/5
f 515/2/5 513/2/5 512/2/5
f 516/2/5 514/2/5 515/2/5
f 521/1/5 518/1/5 517/1/5
f 522/2/5 519/2/5 518/2/5
f 522/1/5 518/1/5 521/1/5
f 523/2/5 519/2/5 522/2/5
f 524/2/5 521/2/5 520/2/5
f 525/2/5 521/2/5 524/2/5
f 528/2/5 527/2/5 526/2/5
f 529/2/5 527/2/5 528/2/5
f 530/2/5 527/2/5 529/2/5
f 535/1/5 532/1/5 531/1/5
f 536/1/5 532/1/5 535/1/5
f 537/2/5 534/2/5 533/2/5
f 538/2/5 534/2/5 537/2/5
f 543/1/5 540/1/5 539/1/5
f 544/1/5 540/1/5 543/1/5
f 545/2/5 542/2/5 541/2/5
f 546/2/5 542/2/5 545/2/5
f 547/4/6 548/4/6 552/4/6
f 548/3/6 549/3/6 553/3/6
f 552/4/6 548/4/6 553/4/6
f 549/4/6 550/4/6 554/4/6
f 553/3/6 549/3/6 554/3/6
f 554/4/6 550/4/6 555/4/6
f 551/4/6 552/4/6 557/4/6
f 557/4/6 552/4/6 558/4/6
f 555/4/6 556/4/6 559/4/6
f 559/4/6 556/4/6 560/4/6
f 561/4/6 562/4/6 565/4/6
f 565/4/6 562/4/6 566/4/6
f 563/4/6 564/4/6 569/4/6
f 569/4/6 564/4/6 570/4/6
f 567/3/6 568/3/6 571/3/6
f 566/3/6 567/3/6 571/3/6
f 568/4/6 569/4/6 572/4/6
f 571/3/6 568/3/6 572/3/6
f 572/4/6 569/4/6 573/4/6
f 574/4/6 575/4/6 578/4/6
f 575/3/6 576/3/6 579/3/6
f 578/4/6 575/4/6 579/4/6
f 579/3/6 576/3/6 580/3/6
f 580/4/6 581/4/6 582/4/6
f 582/4/6 581/4/6 583/4/6
f 577/4/6 578/4/6 584/4/6
f 584/4/6 578/4/6 585/4/6
f 582/3/6 583/3/6 587/3/6
f 585/3/6 586/3/6 588/3/6
f 584/3/6 585/3/6 588/3/6
f 588/3/6 586/3/6 589/3/6
f 589/3/6 586/3/6 590/3/6
f 586/4/6 587/4/6 591/4/6
f 590/3/6 586/3/6 591/3/6
f 587/3/6 583/3/6 592/3/6
f 591/4/6 587/4/6 592/4/6
f 592/3/6 583/3/6 593/3/6
f 589/4/6 590/4/6 594/4/6
f 590/3/6 591/3/6 595/3/6
f 594/4/6 590/4/6 595/4/6
f 591/3/6 592/3/6 595/3/6
f 595/3/6 592/3/6 596/3/6
f 597/2/6 598/2/6 599/2/6
f 599/2/6 598/2/6 600/2/6
f 601/2/6 602/2/6 603/2/6
f 603/2/6 602/2/6 604/2/6
f 605/2/6 606/2/6 609/2/6
f 609/2/6 606/2/6 610/2/6
f 607/2/6 608/2/6 611/2/6
f 611/2/6 608/2/6 612/2/6
f 613/1/6 614/1/6 617/1/6
f 617/1/6 614/1/6 618/1/6
f 615/2/6 616/2/6 619/2/6
f 619/2/6 616/2/6 620/2/6
f 621/2/6 622/2/6 624/2/6
f 624/2/6 622/2/6 625/2/6
f 623/2/6 624/2/6 627/2/6
f 624/1/6 625/1/6 628/1/6
f 627/2/6 624/2/6 628/2/6
f 625/2/6 626/2/6 629/2/6
f 628/1/6 625/1/6 629/1/6
f 629/2/6 626/2/6 630/2/6
f 628/2/6 629/2/6 631/2/6
f 631/2/6 629/2/6 632/2/6
