# Blender v2.78 (sub 0) OBJ File: ''
# www.blender.org
mtllib pniak.mtl
o Cube.001_Cube.002
v 0.519103 0.753168 -0.394445
v 0.569241 0.809054 -0.319062
v 0.552448 0.822448 -0.467984
v 0.602585 0.878334 -0.392601
v 0.213000 0.956553 -0.341635
v 0.263137 1.012439 -0.266252
v 0.246344 1.025833 -0.415175
v 0.296482 1.081719 -0.339792
vn -0.8244 0.5478 0.1422
vn 0.3134 0.6512 -0.6912
vn -0.3134 -0.6512 0.6912
vn -0.4712 -0.5253 -0.7085
vn 0.4712 0.5253 0.7085
usemtl Material.001
s off
f 1//1 2//1 4//1 3//1
f 3//2 7//2 8//2 4//2
f 7//1 5//1 6//1 8//1
f 5//3 1//3 2//3 6//3
f 3//4 1//4 5//4 7//4
f 8//5 6//5 2//5 4//5
o Cube_Cube.001
v 0.616086 0.282029 0.005978
v 0.616086 1.419362 0.005978
v 0.616086 0.282029 -0.866557
v 0.616086 1.419362 -0.866557
v 1.422852 0.282029 -0.059791
v 1.422852 1.419362 -0.059791
v 1.422852 0.282029 -0.866557
v 1.422852 1.419362 -0.866557
v 0.485815 0.282029 -0.463174
v 0.485815 1.419362 -0.463174
v 1.593162 0.282029 -0.463174
v 1.593162 1.419362 -0.463174
v 1.019469 0.282029 -1.018048
v 1.019469 1.419362 -1.018048
v 1.019469 0.282029 0.118177
v 1.019469 1.419362 0.118177
v 1.019469 0.282029 -0.463174
v 0.485815 1.467940 -0.463174
v 0.616086 1.467940 -0.866557
v 1.019469 1.467940 -1.018048
v 1.422852 1.467940 -0.866557
v 1.593162 1.467940 -0.463174
v 1.422852 1.467940 -0.059791
v 1.019469 1.467940 0.118177
v 0.616086 1.467940 0.005978
v 0.667654 1.422429 -0.051808
v 0.667654 1.422429 -0.814164
v 1.372547 1.422429 -0.109272
v 1.372547 1.422429 -0.814164
v 0.553833 1.422429 -0.461718
v 1.521352 1.422429 -0.461718
v 1.020101 1.422429 -0.946525
v 1.020101 1.422429 0.046223
v 0.553833 1.464873 -0.461718
v 0.667654 1.464873 -0.814164
v 1.020101 1.464873 -0.946525
v 1.372547 1.464873 -0.814164
v 1.521352 1.464873 -0.461718
v 1.372547 1.464873 -0.109272
v 1.020101 1.464873 0.046223
v 0.667654 1.464873 -0.051808
v 0.087057 1.581895 -1.181233
v 0.087057 1.708016 -1.181233
v 0.087057 1.581895 -1.307354
v 0.087057 1.708016 -1.307354
v -0.370594 1.581895 -1.181233
v -0.370594 1.708016 -1.181233
v -0.370594 1.581895 -1.307354
v -0.370594 1.708016 -1.307354
vn -0.9516 0.0000 -0.3073
vn 0.3516 0.0000 -0.9362
vn 0.9213 0.0000 0.3890
vn -0.2680 0.0000 0.9634
vn 0.0000 -1.0000 0.0000
vn 0.9213 0.0000 -0.3890
vn -0.9635 0.0000 0.2675
vn 0.4036 0.0000 0.9149
vn -0.3516 0.0000 -0.9362
vn -0.0453 0.9989 0.0126
vn -0.3516 0.0000 0.9362
vn -0.0189 0.9989 -0.0427
vn -0.0160 0.9990 -0.0427
vn 0.0161 0.9989 -0.0430
vn 0.0160 0.9990 0.0427
vn -0.0118 0.9990 0.0425
vn -0.0423 0.9989 0.0179
vn 0.0453 0.9989 -0.0126
vn -0.9213 0.0000 -0.3890
vn -0.9213 0.0000 0.3890
vn 0.9635 0.0000 -0.2676
vn 0.9516 0.0000 0.3073
vn -0.4036 0.0000 -0.9149
vn 0.2680 0.0000 -0.9634
vn 0.3516 0.0000 0.9362
vn 0.0447 0.9989 0.0144
vn -0.0161 0.9989 0.0430
vn 0.0189 0.9989 0.0427
vn 0.0423 0.9989 -0.0179
vn -0.0430 0.9989 -0.0182
vn 0.0430 0.9989 0.0182
vn 0.0118 0.9990 -0.0425
vn -0.0447 0.9989 -0.0144
vn -0.9635 0.0000 0.2676
vn 0.0000 1.0000 0.0000
usemtl None
s off
f 17//6 18//6 12//6 11//6
f 21//7 22//7 16//7 15//7
f 19//8 20//8 14//8 13//8
f 23//9 24//9 10//9 9//9
f 25//10 19//10 13//10 23//10
f 21//10 15//10 19//10 25//10
f 15//11 16//11 20//11 19//11
f 9//12 10//12 18//12 17//12
f 11//10 21//10 25//10 17//10
f 17//10 25//10 23//10 9//10
f 13//13 14//13 24//13 23//13
f 11//14 12//14 22//14 21//14
f 18//15 10//15 34//15 38//15
f 37//16 45//16 44//16 40//16
f 31//17 47//17 48//17 32//17
f 22//18 12//18 35//18 40//18
f 16//19 22//19 40//19 37//19
f 27//20 43//20 44//20 28//20
f 10//21 24//21 41//21 34//21
f 29//22 45//22 46//22 30//22
f 33//23 49//23 42//23 26//23
f 36//24 47//24 46//24 39//24
f 39//25 46//25 45//25 37//25
f 38//26 42//26 49//26 34//26
f 35//27 43//27 42//27 38//27
f 41//28 48//28 47//28 36//28
f 34//29 49//29 48//29 41//29
f 40//30 44//30 43//30 35//30
f 26//31 42//31 43//31 27//31
f 28//32 44//32 45//32 29//32
f 24//33 14//33 36//33 41//33
f 20//34 16//34 37//34 39//34
f 30//35 46//35 47//35 31//35
f 14//36 20//36 39//36 36//36
f 32//37 48//37 49//37 33//37
f 12//38 18//38 38//38 35//38
f 24//9 32//9 33//9 10//9
f 31//13 32//13 24//13 14//13
f 30//8 31//8 14//8 20//8
f 29//11 30//11 20//11 16//11
f 28//7 29//7 16//7 22//7
f 27//14 28//14 22//14 12//14
f 26//6 27//6 12//6 18//6
f 33//39 26//39 18//39 10//39
f 38//40 34//40 41//40 36//40 39//40 37//40 40//40 35//40
