# MagicaVoxel @ Ephtracy

# material
mtllib RocketLauncher.mtl
usemtl palette

# normals
vn -1 0 0
vn 1 0 0
vn 0 0 1
vn 0 0 -1
vn 0 -1 0
vn 0 1 0

# texcoords
vt 0.970703 0.5
vt 0.974609 0.5
vt 0.978516 0.5

# verts
v -9 0 2.5
v -9 0 -2.5
v -9 1 1.5
v -9 1 -1.5
v -9 4 1.5
v -9 4 0.5
v -9 4 -0.5
v -9 4 -1.5
v -9 5 1.5
v -9 5 0.5
v -9 5 -0.5
v -9 5 -1.5
v -9 8 1.5
v -9 8 -1.5
v -9 9 2.5
v -9 9 0.5
v -9 9 -0.5
v -9 9 -2.5
v -9 10 0.5
v -9 10 -0.5
v -8 5 1.5
v -8 5 0.5
v -8 5 -0.5
v -8 5 -1.5
v -8 8 1.5
v -8 8 -1.5
v -7 0 0.5
v -7 0 -0.5
v -7 3 1.5
v -7 3 0.5
v -7 3 -0.5
v -7 3 -1.5
v -7 4 1.5
v -7 4 -1.5
v -4 1 0.5
v -4 1 -0.5
v -4 4 0.5
v -4 4 -0.5
v -2 0 0.5
v -2 0 -0.5
v -2 1 0.5
v -2 1 -0.5
v -2 2 0.5
v -2 2 -0.5
v -2 3 1.5
v -2 3 0.5
v -2 3 -0.5
v -2 3 -1.5
v -2 4 1.5
v -2 4 0.5
v -2 4 -0.5
v -2 4 -1.5
v 8 0 2.5
v 8 0 -2.5
v 8 1 1.5
v 8 1 -1.5
v 8 4 2.5
v 8 4 1.5
v 8 4 -1.5
v 8 4 -2.5
v -8 0 2.5
v -8 0 -2.5
v -8 1 1.5
v -8 1 -1.5
v -8 4 2.5
v -8 4 1.5
v -8 4 -1.5
v -8 4 -2.5
v -8 9 0.5
v -8 9 -0.5
v -8 10 0.5
v -8 10 -0.5
v -5 0 0.5
v -5 0 -0.5
v -5 3 1.5
v -5 3 0.5
v -5 3 -0.5
v -5 3 -1.5
v -5 4 1.5
v -5 4 -1.5
v -3 2 0.5
v -3 2 -0.5
v -3 3 0.5
v -3 3 -0.5
v -1 0 0.5
v -1 0 -0.5
v -1 3 1.5
v -1 3 0.5
v -1 3 -0.5
v -1 3 -1.5
v -1 4 1.5
v -1 4 -1.5
v 8 5 1.5
v 8 5 0.5
v 8 5 -0.5
v 8 5 -1.5
v 8 8 1.5
v 8 8 -1.5
v 9 0 2.5
v 9 0 -2.5
v 9 1 1.5
v 9 1 -1.5
v 9 4 1.5
v 9 4 0.5
v 9 4 -0.5
v 9 4 -1.5
v 9 5 1.5
v 9 5 0.5
v 9 5 -0.5
v 9 5 -1.5
v 9 8 1.5
v 9 8 -1.5
v 9 9 2.5
v 9 9 -2.5
v -9 0 2.5
v -9 9 2.5
v -8 0 2.5
v -8 4 2.5
v -8 5 2.5
v -8 8 2.5
v -5 4 2.5
v -5 5 2.5
v -5 8 2.5
v -5 9 2.5
v -4 4 2.5
v -4 5 2.5
v -4 8 2.5
v -4 9 2.5
v 8 0 2.5
v 8 4 2.5
v 8 5 2.5
v 8 8 2.5
v 9 0 2.5
v 9 9 2.5
v -7 3 1.5
v -7 4 1.5
v -5 3 1.5
v -5 4 1.5
v -2 3 1.5
v -2 4 1.5
v -1 3 1.5
v -1 4 1.5
v -9 9 0.5
v -9 10 0.5
v -8 9 0.5
v -8 10 0.5
v -7 0 0.5
v -7 3 0.5
v -5 0 0.5
v -5 3 0.5
v -4 1 0.5
v -4 4 0.5
v -3 2 0.5
v -3 3 0.5
v -3 4 0.5
v -2 0 0.5
v -2 1 0.5
v -2 2 0.5
v -2 3 0.5
v -2 4 0.5
v -1 0 0.5
v -1 3 0.5
v -9 5 -1.5
v -9 8 -1.5
v -8 5 -1.5
v -8 8 -1.5
v 8 5 -1.5
v 8 8 -1.5
v 9 5 -1.5
v 9 8 -1.5
v -9 5 1.5
v -9 8 1.5
v -8 5 1.5
v -8 8 1.5
v 8 5 1.5
v 8 8 1.5
v 9 5 1.5
v 9 8 1.5
v -9 9 -0.5
v -9 10 -0.5
v -8 9 -0.5
v -8 10 -0.5
v -7 0 -0.5
v -7 3 -0.5
v -5 0 -0.5
v -5 3 -0.5
v -4 1 -0.5
v -4 4 -0.5
v -3 2 -0.5
v -3 3 -0.5
v -3 4 -0.5
v -2 0 -0.5
v -2 1 -0.5
v -2 2 -0.5
v -2 3 -0.5
v -2 4 -0.5
v -1 0 -0.5
v -1 3 -0.5
v -7 3 -1.5
v -7 4 -1.5
v -5 3 -1.5
v -5 4 -1.5
v -2 3 -1.5
v -2 4 -1.5
v -1 3 -1.5
v -1 4 -1.5
v -9 0 -2.5
v -9 9 -2.5
v -8 0 -2.5
v -8 4 -2.5
v -8 5 -2.5
v -8 8 -2.5
v -5 4 -2.5
v -5 5 -2.5
v -5 8 -2.5
v -5 9 -2.5
v -4 4 -2.5
v -4 5 -2.5
v -4 8 -2.5
v -4 9 -2.5
v 8 0 -2.5
v 8 4 -2.5
v 8 5 -2.5
v 8 8 -2.5
v 9 0 -2.5
v 9 9 -2.5
v -9 0 2.5
v -8 0 2.5
v 8 0 2.5
v 9 0 2.5
v -7 0 0.5
v -5 0 0.5
v -2 0 0.5
v -1 0 0.5
v -7 0 -0.5
v -5 0 -0.5
v -2 0 -0.5
v -1 0 -0.5
v -9 0 -2.5
v -8 0 -2.5
v 8 0 -2.5
v 9 0 -2.5
v -4 1 0.5
v -2 1 0.5
v -4 1 -0.5
v -2 1 -0.5
v -7 3 1.5
v -5 3 1.5
v -2 3 1.5
v -1 3 1.5
v -7 3 0.5
v -5 3 0.5
v -3 3 0.5
v -2 3 0.5
v -1 3 0.5
v -7 3 -0.5
v -5 3 -0.5
v -3 3 -0.5
v -2 3 -0.5
v -1 3 -0.5
v -7 3 -1.5
v -5 3 -1.5
v -2 3 -1.5
v -1 3 -1.5
v -8 4 2.5
v -5 4 2.5
v -4 4 2.5
v 8 4 2.5
v -8 4 1.5
v -7 4 1.5
v -5 4 1.5
v -4 4 1.5
v -2 4 1.5
v -1 4 1.5
v 8 4 1.5
v -4 4 0.5
v -3 4 0.5
v -2 4 0.5
v -4 4 -0.5
v -3 4 -0.5
v -2 4 -0.5
v -8 4 -1.5
v -7 4 -1.5
v -5 4 -1.5
v -4 4 -1.5
v -2 4 -1.5
v -1 4 -1.5
v 8 4 -1.5
v -8 4 -2.5
v -5 4 -2.5
v -4 4 -2.5
v 8 4 -2.5
v -9 8 1.5
v -8 8 1.5
v 8 8 1.5
v 9 8 1.5
v -9 8 -1.5
v -8 8 -1.5
v 8 8 -1.5
v 9 8 -1.5
v -3 2 0.5
v -2 2 0.5
v -3 2 -0.5
v -2 2 -0.5
v -9 5 1.5
v -8 5 1.5
v 8 5 1.5
v 9 5 1.5
v -9 5 0.5
v -8 5 0.5
v 8 5 0.5
v 9 5 0.5
v -9 5 -0.5
v -8 5 -0.5
v 8 5 -0.5
v 9 5 -0.5
v -9 5 -1.5
v -8 5 -1.5
v 8 5 -1.5
v 9 5 -1.5
v -9 9 2.5
v -5 9 2.5
v -4 9 2.5
v 9 9 2.5
v -8 9 1.5
v -5 9 1.5
v -4 9 1.5
v 8 9 1.5
v -9 9 0.5
v -8 9 0.5
v -9 9 -0.5
v -8 9 -0.5
v -8 9 -1.5
v -5 9 -1.5
v -4 9 -1.5
v 8 9 -1.5
v -9 9 -2.5
v -5 9 -2.5
v -4 9 -2.5
v 9 9 -2.5
v -9 10 0.5
v -8 10 0.5
v -9 10 -0.5
v -8 10 -0.5

# faces
f 3/2/1 2/2/1 1/2/1
f 4/2/1 2/2/1 3/2/1
f 5/2/1 3/2/1 1/2/1
f 5/1/1 4/1/1 3/1/1
f 6/1/1 4/1/1 5/1/1
f 7/1/1 4/1/1 6/1/1
f 8/2/1 2/2/1 4/2/1
f 8/1/1 4/1/1 7/1/1
f 9/2/1 5/2/1 1/2/1
f 9/3/1 6/3/1 5/3/1
f 10/2/1 7/2/1 6/2/1
f 10/3/1 6/3/1 9/3/1
f 11/3/1 8/3/1 7/3/1
f 11/2/1 7/2/1 10/2/1
f 12/2/1 2/2/1 8/2/1
f 12/3/1 8/3/1 11/3/1
f 13/2/1 9/2/1 1/2/1
f 14/2/1 2/2/1 12/2/1
f 15/2/1 13/2/1 1/2/1
f 15/2/1 14/2/1 13/2/1
f 16/2/1 14/2/1 15/2/1
f 17/2/1 14/2/1 16/2/1
f 18/2/1 2/2/1 14/2/1
f 18/2/1 14/2/1 17/2/1
f 19/1/1 17/1/1 16/1/1
f 20/1/1 17/1/1 19/1/1
f 25/1/1 22/1/1 21/1/1
f 25/1/1 24/1/1 23/1/1
f 25/1/1 23/1/1 22/1/1
f 26/1/1 24/1/1 25/1/1
f 30/2/1 28/2/1 27/2/1
f 31/2/1 28/2/1 30/2/1
f 33/2/1 30/2/1 29/2/1
f 33/2/1 32/2/1 31/2/1
f 33/2/1 31/2/1 30/2/1
f 34/2/1 32/2/1 33/2/1
f 37/2/1 36/2/1 35/2/1
f 38/2/1 36/2/1 37/2/1
f 41/2/1 40/2/1 39/2/1
f 42/2/1 40/2/1 41/2/1
f 46/2/1 44/2/1 43/2/1
f 47/2/1 44/2/1 46/2/1
f 49/2/1 46/2/1 45/2/1
f 50/2/1 46/2/1 49/2/1
f 51/2/1 48/2/1 47/2/1
f 52/2/1 48/2/1 51/2/1
f 55/2/1 54/2/1 53/2/1
f 56/2/1 54/2/1 55/2/1
f 57/2/1 55/2/1 53/2/1
f 58/1/1 56/1/1 55/1/1
f 58/2/1 55/2/1 57/2/1
f 59/2/1 54/2/1 56/2/1
f 59/1/1 56/1/1 58/1/1
f 60/2/1 54/2/1 59/2/1
f 61/2/2 62/2/2 63/2/2
f 63/2/2 62/2/2 64/2/2
f 61/2/2 63/2/2 65/2/2
f 63/1/2 64/1/2 66/1/2
f 65/2/2 63/2/2 66/2/2
f 64/2/2 62/2/2 67/2/2
f 66/1/2 64/1/2 67/1/2
f 67/2/2 62/2/2 68/2/2
f 69/1/2 70/1/2 71/1/2
f 71/1/2 70/1/2 72/1/2
f 73/2/2 74/2/2 76/2/2
f 76/2/2 74/2/2 77/2/2
f 75/2/2 76/2/2 79/2/2
f 77/2/2 78/2/2 79/2/2
f 76/2/2 77/2/2 79/2/2
f 79/2/2 78/2/2 80/2/2
f 81/2/2 82/2/2 83/2/2
f 83/2/2 82/2/2 84/2/2
f 85/2/2 86/2/2 88/2/2
f 88/2/2 86/2/2 89/2/2
f 87/2/2 88/2/2 91/2/2
f 89/2/2 90/2/2 91/2/2
f 88/2/2 89/2/2 91/2/2
f 91/2/2 90/2/2 92/2/2
f 93/1/2 94/1/2 97/1/2
f 95/1/2 96/1/2 97/1/2
f 94/1/2 95/1/2 97/1/2
f 97/1/2 96/1/2 98/1/2
f 99/2/2 100/2/2 101/2/2
f 101/2/2 100/2/2 102/2/2
f 99/2/2 101/2/2 103/2/2
f 101/1/2 102/1/2 103/1/2
f 103/1/2 102/1/2 104/1/2
f 104/1/2 102/1/2 105/1/2
f 102/2/2 100/2/2 106/2/2
f 105/1/2 102/1/2 106/1/2
f 99/2/2 103/2/2 107/2/2
f 103/3/2 104/3/2 107/3/2
f 104/2/2 105/2/2 108/2/2
f 107/3/2 104/3/2 108/3/2
f 105/3/2 106/3/2 109/3/2
f 108/2/2 105/2/2 109/2/2
f 106/2/2 100/2/2 110/2/2
f 109/3/2 106/3/2 110/3/2
f 99/2/2 107/2/2 111/2/2
f 110/2/2 100/2/2 112/2/2
f 99/2/2 111/2/2 113/2/2
f 111/2/2 112/2/2 113/2/2
f 112/2/2 100/2/2 114/2/2
f 113/2/2 112/2/2 114/2/2
f 117/2/3 116/2/3 115/2/3
f 118/2/3 116/2/3 117/2/3
f 119/2/3 116/2/3 118/2/3
f 120/2/3 116/2/3 119/2/3
f 121/2/3 119/2/3 118/2/3
f 122/1/3 120/1/3 119/1/3
f 122/2/3 119/2/3 121/2/3
f 123/2/3 116/2/3 120/2/3
f 123/1/3 120/1/3 122/1/3
f 124/2/3 116/2/3 123/2/3
f 125/3/3 122/3/3 121/3/3
f 125/3/3 123/3/3 122/3/3
f 125/3/3 124/3/3 123/3/3
f 126/3/3 124/3/3 125/3/3
f 127/3/3 124/3/3 126/3/3
f 128/3/3 124/3/3 127/3/3
f 130/2/3 126/2/3 125/2/3
f 131/1/3 127/1/3 126/1/3
f 131/2/3 126/2/3 130/2/3
f 132/2/3 128/2/3 127/2/3
f 132/1/3 127/1/3 131/1/3
f 133/2/3 130/2/3 129/2/3
f 133/2/3 131/2/3 130/2/3
f 133/2/3 132/2/3 131/2/3
f 134/2/3 128/2/3 132/2/3
f 134/2/3 132/2/3 133/2/3
f 137/2/3 136/2/3 135/2/3
f 138/2/3 136/2/3 137/2/3
f 141/2/3 140/2/3 139/2/3
f 142/2/3 140/2/3 141/2/3
f 145/1/3 144/1/3 143/1/3
f 146/1/3 144/1/3 145/1/3
f 149/2/3 148/2/3 147/2/3
f 150/2/3 148/2/3 149/2/3
f 153/2/3 152/2/3 151/2/3
f 154/2/3 152/2/3 153/2/3
f 155/2/3 152/2/3 154/2/3
f 157/2/3 153/2/3 151/2/3
f 158/2/3 153/2/3 157/2/3
f 159/3/3 155/3/3 154/3/3
f 160/3/3 155/3/3 159/3/3
f 161/2/3 158/2/3 157/2/3
f 161/2/3 157/2/3 156/2/3
f 161/2/3 159/2/3 158/2/3
f 162/2/3 159/2/3 161/2/3
f 165/2/3 164/2/3 163/2/3
f 166/2/3 164/2/3 165/2/3
f 169/2/3 168/2/3 167/2/3
f 170/2/3 168/2/3 169/2/3
f 171/2/4 172/2/4 173/2/4
f 173/2/4 172/2/4 174/2/4
f 175/2/4 176/2/4 177/2/4
f 177/2/4 176/2/4 178/2/4
f 179/1/4 180/1/4 181/1/4
f 181/1/4 180/1/4 182/1/4
f 183/2/4 184/2/4 185/2/4
f 185/2/4 184/2/4 186/2/4
f 187/2/4 188/2/4 189/2/4
f 189/2/4 188/2/4 190/2/4
f 190/2/4 188/2/4 191/2/4
f 187/2/4 189/2/4 193/2/4
f 193/2/4 189/2/4 194/2/4
f 190/3/4 191/3/4 195/3/4
f 195/3/4 191/3/4 196/3/4
f 193/2/4 194/2/4 197/2/4
f 192/2/4 193/2/4 197/2/4
f 194/2/4 195/2/4 197/2/4
f 197/2/4 195/2/4 198/2/4
f 199/2/4 200/2/4 201/2/4
f 201/2/4 200/2/4 202/2/4
f 203/2/4 204/2/4 205/2/4
f 205/2/4 204/2/4 206/2/4
f 207/2/4 208/2/4 209/2/4
f 209/2/4 208/2/4 210/2/4
f 210/2/4 208/2/4 211/2/4
f 211/2/4 208/2/4 212/2/4
f 210/2/4 211/2/4 213/2/4
f 211/1/4 212/1/4 214/1/4
f 213/2/4 211/2/4 214/2/4
f 212/2/4 208/2/4 215/2/4
f 214/1/4 212/1/4 215/1/4
f 215/2/4 208/2/4 216/2/4
f 213/3/4 214/3/4 217/3/4
f 214/3/4 215/3/4 217/3/4
f 215/3/4 216/3/4 217/3/4
f 217/3/4 216/3/4 218/3/4
f 218/3/4 216/3/4 219/3/4
f 219/3/4 216/3/4 220/3/4
f 217/2/4 218/2/4 222/2/4
f 218/1/4 219/1/4 223/1/4
f 222/2/4 218/2/4 223/2/4
f 219/2/4 220/2/4 224/2/4
f 223/1/4 219/1/4 224/1/4
f 221/2/4 222/2/4 225/2/4
f 222/2/4 223/2/4 225/2/4
f 223/2/4 224/2/4 225/2/4
f 224/2/4 220/2/4 226/2/4
f 225/2/4 224/2/4 226/2/4
f 235/2/5 232/2/5 231/2/5
f 236/2/5 232/2/5 235/2/5
f 237/2/5 234/2/5 233/2/5
f 238/2/5 234/2/5 237/2/5
f 239/2/5 228/2/5 227/2/5
f 240/2/5 228/2/5 239/2/5
f 241/2/5 230/2/5 229/2/5
f 242/2/5 230/2/5 241/2/5
f 245/2/5 244/2/5 243/2/5
f 246/2/5 244/2/5 245/2/5
f 251/2/5 248/2/5 247/2/5
f 252/2/5 248/2/5 251/2/5
f 254/2/5 250/2/5 249/2/5
f 255/2/5 250/2/5 254/2/5
f 258/3/5 254/3/5 253/3/5
f 259/3/5 254/3/5 258/3/5
f 261/2/5 257/2/5 256/2/5
f 262/2/5 257/2/5 261/2/5
f 263/2/5 260/2/5 259/2/5
f 264/2/5 260/2/5 263/2/5
f 269/2/5 266/2/5 265/2/5
f 270/2/5 266/2/5 269/2/5
f 271/3/5 267/3/5 266/3/5
f 271/2/5 266/2/5 270/2/5
f 272/2/5 268/2/5 267/2/5
f 272/3/5 267/3/5 271/3/5
f 273/2/5 268/2/5 272/2/5
f 274/2/5 268/2/5 273/2/5
f 275/2/5 268/2/5 274/2/5
f 276/3/5 272/3/5 271/3/5
f 276/1/5 273/1/5 272/1/5
f 277/1/5 273/1/5 276/1/5
f 278/1/5 273/1/5 277/1/5
f 279/3/5 276/3/5 271/3/5
f 282/1/5 270/1/5 269/1/5
f 283/1/5 270/1/5 282/1/5
f 284/3/5 279/3/5 271/3/5
f 285/1/5 281/1/5 280/1/5
f 285/1/5 280/1/5 279/1/5
f 285/3/5 279/3/5 284/3/5
f 286/1/5 281/1/5 285/1/5
f 287/1/5 275/1/5 274/1/5
f 288/1/5 275/1/5 287/1/5
f 289/2/5 284/2/5 283/2/5
f 289/2/5 283/2/5 282/2/5
f 290/3/5 285/3/5 284/3/5
f 290/2/5 284/2/5 289/2/5
f 291/2/5 286/2/5 285/2/5
f 291/3/5 285/3/5 290/3/5
f 291/2/5 288/2/5 287/2/5
f 291/2/5 287/2/5 286/2/5
f 292/2/5 288/2/5 291/2/5
f 297/2/5 294/2/5 293/2/5
f 298/2/5 294/2/5 297/2/5
f 299/2/5 296/2/5 295/2/5
f 300/2/5 296/2/5 299/2/5
f 301/2/6 302/2/6 303/2/6
f 303/2/6 302/2/6 304/2/6
f 305/3/6 306/3/6 309/3/6
f 309/3/6 306/3/6 310/3/6
f 307/3/6 308/3/6 311/3/6
f 311/3/6 308/3/6 312/3/6
f 309/2/6 310/2/6 313/2/6
f 313/2/6 310/2/6 314/2/6
f 311/2/6 312/2/6 315/2/6
f 315/2/6 312/2/6 316/2/6
f 313/3/6 314/3/6 317/3/6
f 317/3/6 314/3/6 318/3/6
f 315/3/6 316/3/6 319/3/6
f 319/3/6 316/3/6 320/3/6
f 321/2/6 322/2/6 325/2/6
f 322/3/6 323/3/6 326/3/6
f 325/2/6 322/2/6 326/2/6
f 323/2/6 324/2/6 327/2/6
f 326/3/6 323/3/6 327/3/6
f 327/2/6 324/2/6 328/2/6
f 321/2/6 325/2/6 329/2/6
f 325/1/6 326/1/6 330/1/6
f 329/2/6 325/2/6 330/2/6
f 330/1/6 326/1/6 332/1/6
f 332/1/6 326/1/6 333/1/6
f 331/2/6 332/2/6 333/2/6
f 326/3/6 327/3/6 334/3/6
f 333/1/6 326/1/6 334/1/6
f 327/1/6 328/1/6 335/1/6
f 334/3/6 327/3/6 335/3/6
f 328/2/6 324/2/6 336/2/6
f 335/1/6 328/1/6 336/1/6
f 331/2/6 333/2/6 337/2/6
f 333/2/6 334/2/6 337/2/6
f 334/3/6 335/3/6 338/3/6
f 337/2/6 334/2/6 338/2/6
f 335/2/6 336/2/6 339/2/6
f 338/3/6 335/3/6 339/3/6
f 336/2/6 324/2/6 340/2/6
f 339/2/6 336/2/6 340/2/6
f 341/1/6 342/1/6 343/1/6
f 343/1/6 342/1/6 344/1/6
