# MagicaVoxel @ Ephtracy

# material
mtllib Dagger.mtl
usemtl palette

# normals
vn -1 0 0
vn 1 0 0
vn 0 0 1
vn 0 0 -1
vn 0 -1 0
vn 0 1 0

# texcoords
vt 0.845703 0.5
vt 0.849609 0.5
vt 0.884766 0.5
vt 0.888672 0.5

# verts
v -3 3 2
v -3 3 1
v -3 3 -0
v -3 3 -2
v -3 4 2
v -3 4 1
v -3 4 -0
v -3 4 -2
v -3 5 2
v -3 5 -2
v -2 2 2
v -2 2 1
v -2 2 -2
v -2 3 3
v -2 3 2
v -2 3 1
v -2 3 -0
v -2 3 -2
v -2 3 -3
v -2 4 3
v -2 4 2
v -2 4 -2
v -2 5 3
v -2 5 2
v -2 5 -2
v -2 5 -3
v -2 6 2
v -2 6 -2
v -1 1 1
v -1 1 -1
v -1 2 1
v -1 2 -1
v -1 6 1
v -1 6 -0
v -1 6 -1
v -1 11 1
v -1 11 -0
v -1 11 -1
v -1 12 -0
v -1 12 -1
v 0 1 1
v 0 1 -1
v 0 2 1
v 0 2 -1
v 0 6 1
v 0 6 -0
v 0 6 -1
v 0 11 1
v 0 11 -0
v 0 11 -1
v 0 12 -0
v 0 12 -1
v 1 2 2
v 1 2 1
v 1 2 -1
v 1 2 -2
v 1 3 3
v 1 3 2
v 1 3 1
v 1 3 -0
v 1 3 -1
v 1 3 -2
v 1 3 -3
v 1 4 3
v 1 4 2
v 1 4 -2
v 1 4 -3
v 1 5 3
v 1 5 2
v 1 5 1
v 1 5 -0
v 1 5 -2
v 1 5 -3
v 1 6 2
v 1 6 -2
v 2 3 2
v 2 3 -0
v 2 3 -1
v 2 3 -2
v 2 4 1
v 2 4 -0
v 2 4 -1
v 2 5 2
v 2 5 1
v 2 5 -0
v 2 5 -2
v -2 3 3
v -2 4 3
v -2 5 3
v -1 3 3
v -1 4 3
v -1 5 3
v 0 3 3
v 0 4 3
v 0 5 3
v 1 3 3
v 1 4 3
v 1 5 3
v -3 3 2
v -3 4 2
v -3 5 2
v -2 2 2
v -2 3 2
v -2 4 2
v -2 5 2
v -2 6 2
v -1 2 2
v -1 3 2
v -1 5 2
v 0 2 2
v 0 3 2
v 0 5 2
v 1 2 2
v 1 3 2
v 1 4 2
v 1 5 2
v 1 6 2
v 2 3 2
v 2 5 2
v -1 1 1
v -1 2 1
v -1 6 1
v -1 11 1
v 0 1 1
v 0 2 1
v 0 6 1
v 0 11 1
v -1 11 -0
v -1 12 -0
v 0 11 -0
v 0 12 -0
v -1 1 -1
v -1 2 -1
v -1 6 -1
v -1 11 -1
v -1 12 -1
v 0 1 -1
v 0 2 -1
v 0 6 -1
v 0 11 -1
v 0 12 -1
v -3 3 -2
v -3 4 -2
v -3 5 -2
v -2 2 -2
v -2 3 -2
v -2 4 -2
v -2 5 -2
v -2 6 -2
v -1 3 -2
v -1 5 -2
v 0 2 -2
v 0 3 -2
v 1 2 -2
v 1 3 -2
v 1 4 -2
v 1 5 -2
v 1 6 -2
v 2 3 -2
v 2 5 -2
v -2 3 -3
v -2 5 -3
v -1 3 -3
v -1 5 -3
v 0 3 -3
v 0 4 -3
v 1 3 -3
v 1 4 -3
v 1 5 -3
v -1 1 1
v 0 1 1
v -1 1 -1
v 0 1 -1
v -2 2 2
v -1 2 2
v 0 2 2
v 1 2 2
v -2 2 1
v -1 2 1
v 0 2 1
v 1 2 1
v -1 2 -1
v 0 2 -1
v 1 2 -1
v -2 2 -2
v 0 2 -2
v 1 2 -2
v -2 3 3
v -1 3 3
v 0 3 3
v 1 3 3
v -3 3 2
v -2 3 2
v -1 3 2
v 0 3 2
v 1 3 2
v 2 3 2
v -3 3 1
v -2 3 1
v 1 3 1
v -3 3 -0
v -2 3 -0
v 1 3 -0
v 2 3 -0
v 1 3 -1
v 2 3 -1
v -3 3 -2
v -2 3 -2
v -1 3 -2
v 0 3 -2
v 1 3 -2
v 2 3 -2
v -2 3 -3
v -1 3 -3
v 0 3 -3
v 1 3 -3
v -2 5 3
v -1 5 3
v 0 5 3
v 1 5 3
v -3 5 2
v -2 5 2
v -1 5 2
v 0 5 2
v 1 5 2
v 2 5 2
v 1 5 1
v 2 5 1
v 1 5 -0
v 2 5 -0
v -3 5 -2
v -2 5 -2
v -1 5 -2
v 1 5 -2
v 2 5 -2
v -2 5 -3
v -1 5 -3
v 1 5 -3
v -2 6 2
v 1 6 2
v -1 6 1
v 0 6 1
v -1 6 -0
v 0 6 -0
v -1 6 -1
v 0 6 -1
v -2 6 -2
v 1 6 -2
v -1 11 1
v 0 11 1
v -1 11 -0
v 0 11 -0
v -1 12 -0
v 0 12 -0
v -1 12 -1
v 0 12 -1

# faces
f 5/4/1 2/4/1 1/4/1
f 6/3/1 3/3/1 2/3/1
f 6/4/1 2/4/1 5/4/1
f 7/4/1 4/4/1 3/4/1
f 7/3/1 3/3/1 6/3/1
f 8/4/1 4/4/1 7/4/1
f 9/3/1 6/3/1 5/3/1
f 9/3/1 7/3/1 6/3/1
f 9/3/1 8/3/1 7/3/1
f 10/3/1 8/3/1 9/3/1
f 15/4/1 12/4/1 11/4/1
f 16/3/1 13/3/1 12/3/1
f 16/4/1 12/4/1 15/4/1
f 17/3/1 13/3/1 16/3/1
f 18/3/1 13/3/1 17/3/1
f 20/3/1 15/3/1 14/3/1
f 21/3/1 15/3/1 20/3/1
f 22/4/1 19/4/1 18/4/1
f 23/4/1 21/4/1 20/4/1
f 24/4/1 21/4/1 23/4/1
f 25/4/1 19/4/1 22/4/1
f 26/4/1 19/4/1 25/4/1
f 27/1/1 25/1/1 24/1/1
f 28/1/1 25/1/1 27/1/1
f 31/1/1 30/1/1 29/1/1
f 32/1/1 30/1/1 31/1/1
f 36/2/1 34/2/1 33/2/1
f 37/1/1 35/1/1 34/1/1
f 37/2/1 34/2/1 36/2/1
f 38/1/1 35/1/1 37/1/1
f 39/2/1 38/2/1 37/2/1
f 40/2/1 38/2/1 39/2/1
f 41/1/2 42/1/2 43/1/2
f 43/1/2 42/1/2 44/1/2
f 45/2/2 46/2/2 48/2/2
f 46/1/2 47/1/2 49/1/2
f 48/2/2 46/2/2 49/2/2
f 49/1/2 47/1/2 50/1/2
f 49/2/2 50/2/2 51/2/2
f 51/2/2 50/2/2 52/2/2
f 53/4/2 54/4/2 58/4/2
f 54/3/2 55/3/2 59/3/2
f 58/4/2 54/4/2 59/4/2
f 59/3/2 55/3/2 60/3/2
f 55/4/2 56/4/2 61/4/2
f 60/3/2 55/3/2 61/3/2
f 61/4/2 56/4/2 62/4/2
f 57/3/2 58/3/2 64/3/2
f 64/3/2 58/3/2 65/3/2
f 62/4/2 63/4/2 66/4/2
f 66/4/2 63/4/2 67/4/2
f 64/4/2 65/4/2 68/4/2
f 68/4/2 65/4/2 69/4/2
f 66/3/2 67/3/2 72/3/2
f 72/3/2 67/3/2 73/3/2
f 70/1/2 71/1/2 74/1/2
f 71/1/2 72/1/2 74/1/2
f 69/1/2 70/1/2 74/1/2
f 74/1/2 72/1/2 75/1/2
f 76/3/2 77/3/2 80/3/2
f 77/4/2 78/4/2 81/4/2
f 80/3/2 77/3/2 81/3/2
f 78/3/2 79/3/2 82/3/2
f 81/4/2 78/4/2 82/4/2
f 76/3/2 80/3/2 83/3/2
f 80/4/2 81/4/2 84/4/2
f 83/3/2 80/3/2 84/3/2
f 81/3/2 82/3/2 85/3/2
f 84/4/2 81/4/2 85/4/2
f 82/3/2 79/3/2 86/3/2
f 85/3/2 82/3/2 86/3/2
f 90/3/3 88/3/3 87/3/3
f 91/4/3 89/4/3 88/4/3
f 91/3/3 88/3/3 90/3/3
f 92/4/3 89/4/3 91/4/3
f 93/4/3 91/4/3 90/4/3
f 94/3/3 92/3/3 91/3/3
f 94/4/3 91/4/3 93/4/3
f 95/3/3 92/3/3 94/3/3
f 96/3/3 94/3/3 93/3/3
f 97/4/3 95/4/3 94/4/3
f 97/3/3 94/3/3 96/3/3
f 98/4/3 95/4/3 97/4/3
f 103/4/3 100/4/3 99/4/3
f 104/3/3 101/3/3 100/3/3
f 104/4/3 100/4/3 103/4/3
f 105/3/3 101/3/3 104/3/3
f 107/4/3 103/4/3 102/4/3
f 108/4/3 103/4/3 107/4/3
f 109/1/3 106/1/3 105/1/3
f 110/3/3 108/3/3 107/3/3
f 111/3/3 108/3/3 110/3/3
f 112/1/3 106/1/3 109/1/3
f 113/4/3 111/4/3 110/4/3
f 114/4/3 111/4/3 113/4/3
f 116/1/3 106/1/3 112/1/3
f 117/1/3 106/1/3 116/1/3
f 118/3/3 115/3/3 114/3/3
f 118/3/3 116/3/3 115/3/3
f 119/3/3 116/3/3 118/3/3
f 124/1/3 121/1/3 120/1/3
f 125/1/3 121/1/3 124/1/3
f 126/2/3 123/2/3 122/2/3
f 127/2/3 123/2/3 126/2/3
f 130/2/3 129/2/3 128/2/3
f 131/2/3 129/2/3 130/2/3
f 132/1/4 133/1/4 137/1/4
f 137/1/4 133/1/4 138/1/4
f 134/1/4 135/1/4 139/1/4
f 135/2/4 136/2/4 140/2/4
f 139/1/4 135/1/4 140/1/4
f 140/2/4 136/2/4 141/2/4
f 142/4/4 143/4/4 146/4/4
f 143/3/4 144/3/4 147/3/4
f 146/4/4 143/4/4 147/4/4
f 147/3/4 144/3/4 148/3/4
f 145/3/4 146/3/4 150/3/4
f 148/1/4 149/1/4 151/1/4
f 145/3/4 150/3/4 152/3/4
f 152/3/4 150/3/4 153/3/4
f 152/4/4 153/4/4 154/4/4
f 154/4/4 153/4/4 155/4/4
f 151/1/4 149/1/4 157/1/4
f 157/1/4 149/1/4 158/1/4
f 155/3/4 156/3/4 159/3/4
f 156/3/4 157/3/4 159/3/4
f 159/3/4 157/3/4 160/3/4
f 161/4/4 162/4/4 163/4/4
f 163/4/4 162/4/4 164/4/4
f 163/3/4 164/3/4 165/3/4
f 165/3/4 164/3/4 166/3/4
f 165/4/4 166/4/4 167/4/4
f 166/3/4 164/3/4 168/3/4
f 167/4/4 166/4/4 168/4/4
f 168/3/4 164/3/4 169/3/4
f 172/1/5 171/1/5 170/1/5
f 173/1/5 171/1/5 172/1/5
f 178/4/5 175/4/5 174/4/5
f 179/3/5 176/3/5 175/3/5
f 179/4/5 175/4/5 178/4/5
f 180/4/5 177/4/5 176/4/5
f 180/3/5 176/3/5 179/3/5
f 181/4/5 177/4/5 180/4/5
f 182/3/5 179/3/5 178/3/5
f 183/3/5 181/3/5 180/3/5
f 184/3/5 181/3/5 183/3/5
f 185/3/5 182/3/5 178/3/5
f 185/3/5 183/3/5 182/3/5
f 186/4/5 184/4/5 183/4/5
f 186/3/5 183/3/5 185/3/5
f 187/4/5 184/4/5 186/4/5
f 193/3/5 189/3/5 188/3/5
f 194/4/5 190/4/5 189/4/5
f 194/3/5 189/3/5 193/3/5
f 195/3/5 191/3/5 190/3/5
f 195/4/5 190/4/5 194/4/5
f 196/3/5 191/3/5 195/3/5
f 198/4/5 193/4/5 192/4/5
f 199/4/5 193/4/5 198/4/5
f 200/3/5 197/3/5 196/3/5
f 201/3/5 199/3/5 198/3/5
f 202/3/5 199/3/5 201/3/5
f 203/3/5 197/3/5 200/3/5
f 204/3/5 197/3/5 203/3/5
f 205/4/5 204/4/5 203/4/5
f 206/4/5 204/4/5 205/4/5
f 207/4/5 202/4/5 201/4/5
f 208/4/5 202/4/5 207/4/5
f 211/3/5 206/3/5 205/3/5
f 212/3/5 206/3/5 211/3/5
f 213/4/5 209/4/5 208/4/5
f 214/3/5 210/3/5 209/3/5
f 214/4/5 209/4/5 213/4/5
f 215/4/5 211/4/5 210/4/5
f 215/3/5 210/3/5 214/3/5
f 216/4/5 211/4/5 215/4/5
f 217/4/6 218/4/6 222/4/6
f 218/3/6 219/3/6 223/3/6
f 222/4/6 218/4/6 223/4/6
f 219/4/6 220/4/6 224/4/6
f 223/3/6 219/3/6 224/3/6
f 224/4/6 220/4/6 225/4/6
f 225/3/6 226/3/6 227/3/6
f 227/3/6 226/3/6 228/3/6
f 227/4/6 228/4/6 229/4/6
f 229/4/6 228/4/6 230/4/6
f 221/3/6 222/3/6 231/3/6
f 231/3/6 222/3/6 232/3/6
f 229/3/6 230/3/6 234/3/6
f 234/3/6 230/3/6 235/3/6
f 232/4/6 233/4/6 236/4/6
f 233/3/6 234/3/6 237/3/6
f 236/4/6 233/4/6 237/4/6
f 237/3/6 234/3/6 238/3/6
f 239/1/6 240/1/6 241/1/6
f 241/1/6 240/1/6 242/1/6
f 239/1/6 241/1/6 243/1/6
f 242/1/6 240/1/6 244/1/6
f 239/1/6 243/1/6 245/1/6
f 244/1/6 240/1/6 246/1/6
f 239/1/6 245/1/6 247/1/6
f 245/1/6 246/1/6 247/1/6
f 246/1/6 240/1/6 248/1/6
f 247/1/6 246/1/6 248/1/6
f 249/2/6 250/2/6 251/2/6
f 251/2/6 250/2/6 252/2/6
f 253/2/6 254/2/6 255/2/6
f 255/2/6 254/2/6 256/2/6
