# MagicaVoxel @ Ephtracy

# material
mtllib HandgunDol.mtl
usemtl palette

# normals
vn -1 0 0
vn 1 0 0
vn 0 0 1
vn 0 0 -1
vn 0 -1 0
vn 0 1 0

# texcoords
vt 0.783203 0.5
vt 0.787109 0.5
vt 0.791016 0.5
vt 0.794922 0.5

# verts
v -13 10 1.5
v -13 10 -1.5
v -13 11 2.5
v -13 11 1.5
v -13 11 -1.5
v -13 11 -2.5
v -13 12 1.5
v -13 12 0.5
v -13 12 -0.5
v -13 12 -1.5
v -13 13 1.5
v -13 13 0.5
v -13 13 -0.5
v -13 13 -1.5
v -13 14 2.5
v -13 14 1.5
v -13 14 -1.5
v -13 14 -2.5
v -12 12 0.5
v -12 12 -0.5
v -12 13 1.5
v -12 13 0.5
v -12 13 -0.5
v -12 13 -1.5
v -12 14 1.5
v -12 14 0.5
v -12 14 -0.5
v -12 14 -1.5
v -4 13 0.5
v -4 13 -0.5
v -4 14 0.5
v -4 14 -0.5
v -1 7 1.5
v -1 7 -1.5
v -1 10 1.5
v -1 10 -1.5
v 1 8 0.5
v 1 8 -0.5
v 1 10 0.5
v 1 10 -0.5
v 3 0 2.5
v 3 0 -2.5
v 3 1 2.5
v 3 1 -2.5
v 3 6 2.5
v 3 6 -2.5
v 3 7 1.5
v 3 7 -1.5
v 3 8 1.5
v 3 8 -1.5
v 3 9 0.5
v 3 9 -0.5
v 3 10 1.5
v 3 10 0.5
v 3 10 -0.5
v 3 10 -1.5
v 3 11 2.5
v 3 11 1.5
v 3 11 -1.5
v 3 11 -2.5
v 4 1 2.5
v 4 1 -2.5
v 4 6 2.5
v 4 6 -2.5
v 0 8 1.5
v 0 8 -1.5
v 0 10 1.5
v 0 10 -1.5
v 2 8 0.5
v 2 8 -0.5
v 2 9 0.5
v 2 9 -0.5
v 10 6 2.5
v 10 6 -2.5
v 10 9 2.5
v 10 9 -2.5
v 11 0 2.5
v 11 0 -2.5
v 11 6 2.5
v 11 6 -2.5
v 11 9 2.5
v 11 9 -2.5
v 11 10 2.5
v 11 10 -2.5
v 12 10 2.5
v 12 10 -2.5
v 12 12 2.5
v 12 12 -2.5
v 13 12 2.5
v 13 12 -2.5
v 13 14 2.5
v 13 14 -2.5
v -13 11 2.5
v -13 14 2.5
v -12 12 2.5
v -12 13 2.5
v -1 12 2.5
v -1 13 2.5
v 0 12 2.5
v 0 13 2.5
v 1 12 2.5
v 1 13 2.5
v 1 14 2.5
v 2 12 2.5
v 2 13 2.5
v 2 14 2.5
v 3 0 2.5
v 3 1 2.5
v 3 6 2.5
v 3 11 2.5
v 3 12 2.5
v 3 13 2.5
v 3 14 2.5
v 4 1 2.5
v 4 6 2.5
v 4 11 2.5
v 4 12 2.5
v 4 13 2.5
v 4 14 2.5
v 5 1 2.5
v 5 6 2.5
v 5 7 2.5
v 5 10 2.5
v 5 11 2.5
v 5 12 2.5
v 5 13 2.5
v 5 14 2.5
v 6 2 2.5
v 6 7 2.5
v 6 11 2.5
v 6 12 2.5
v 6 13 2.5
v 6 14 2.5
v 7 11 2.5
v 7 12 2.5
v 7 13 2.5
v 7 14 2.5
v 8 5 2.5
v 8 10 2.5
v 8 11 2.5
v 8 12 2.5
v 8 13 2.5
v 8 14 2.5
v 9 2 2.5
v 9 5 2.5
v 9 6 2.5
v 9 9 2.5
v 9 11 2.5
v 9 12 2.5
v 9 13 2.5
v 9 14 2.5
v 10 1 2.5
v 10 6 2.5
v 10 9 2.5
v 10 10 2.5
v 10 11 2.5
v 10 12 2.5
v 10 13 2.5
v 10 14 2.5
v 11 0 2.5
v 11 6 2.5
v 11 9 2.5
v 11 10 2.5
v 11 11 2.5
v 11 12 2.5
v 11 13 2.5
v 11 14 2.5
v 12 10 2.5
v 12 12 2.5
v 12 13 2.5
v 12 14 2.5
v 13 12 2.5
v 13 14 2.5
v -13 10 1.5
v -13 11 1.5
v -1 7 1.5
v -1 10 1.5
v 0 8 1.5
v 0 10 1.5
v 3 7 1.5
v 3 8 1.5
v 3 10 1.5
v 3 11 1.5
v 1 8 0.5
v 1 10 0.5
v 2 8 0.5
v 2 9 0.5
v 3 9 0.5
v 3 10 0.5
v -13 12 -0.5
v -13 13 -0.5
v -12 12 -0.5
v -12 13 -0.5
v -12 14 -0.5
v -4 13 -0.5
v -4 14 -0.5
v -13 13 -1.5
v -13 14 -1.5
v -12 13 -1.5
v -12 14 -1.5
v -13 13 1.5
v -13 14 1.5
v -12 13 1.5
v -12 14 1.5
v -13 12 0.5
v -13 13 0.5
v -12 12 0.5
v -12 13 0.5
v -12 14 0.5
v -4 13 0.5
v -4 14 0.5
v 1 8 -0.5
v 1 10 -0.5
v 2 8 -0.5
v 2 9 -0.5
v 3 9 -0.5
v 3 10 -0.5
v -13 10 -1.5
v -13 11 -1.5
v -1 7 -1.5
v -1 10 -1.5
v 0 8 -1.5
v 0 10 -1.5
v 3 7 -1.5
v 3 8 -1.5
v 3 10 -1.5
v 3 11 -1.5
v -13 11 -2.5
v -13 14 -2.5
v -12 12 -2.5
v -12 13 -2.5
v -1 12 -2.5
v -1 13 -2.5
v -1 14 -2.5
v 0 12 -2.5
v 0 13 -2.5
v 0 14 -2.5
v 1 12 -2.5
v 1 13 -2.5
v 1 14 -2.5
v 2 12 -2.5
v 2 13 -2.5
v 2 14 -2.5
v 3 0 -2.5
v 3 1 -2.5
v 3 6 -2.5
v 3 11 -2.5
v 3 12 -2.5
v 3 13 -2.5
v 3 14 -2.5
v 4 1 -2.5
v 4 6 -2.5
v 4 11 -2.5
v 4 12 -2.5
v 4 13 -2.5
v 4 14 -2.5
v 5 1 -2.5
v 5 6 -2.5
v 5 7 -2.5
v 5 10 -2.5
v 5 11 -2.5
v 5 12 -2.5
v 5 13 -2.5
v 5 14 -2.5
v 6 2 -2.5
v 6 7 -2.5
v 6 11 -2.5
v 6 12 -2.5
v 6 13 -2.5
v 6 14 -2.5
v 7 11 -2.5
v 7 12 -2.5
v 7 13 -2.5
v 7 14 -2.5
v 8 5 -2.5
v 8 10 -2.5
v 8 11 -2.5
v 8 12 -2.5
v 8 13 -2.5
v 8 14 -2.5
v 9 2 -2.5
v 9 5 -2.5
v 9 6 -2.5
v 9 9 -2.5
v 9 11 -2.5
v 9 12 -2.5
v 9 13 -2.5
v 9 14 -2.5
v 10 1 -2.5
v 10 6 -2.5
v 10 9 -2.5
v 10 10 -2.5
v 10 11 -2.5
v 10 12 -2.5
v 10 13 -2.5
v 10 14 -2.5
v 11 0 -2.5
v 11 6 -2.5
v 11 9 -2.5
v 11 10 -2.5
v 11 11 -2.5
v 11 12 -2.5
v 11 13 -2.5
v 11 14 -2.5
v 12 10 -2.5
v 12 12 -2.5
v 12 13 -2.5
v 12 14 -2.5
v 13 12 -2.5
v 13 14 -2.5
v 3 0 2.5
v 11 0 2.5
v 3 0 -2.5
v 11 0 -2.5
v 3 6 2.5
v 4 6 2.5
v 3 6 -2.5
v 4 6 -2.5
v -1 7 1.5
v 3 7 1.5
v -1 7 -1.5
v 3 7 -1.5
v 10 9 2.5
v 11 9 2.5
v 2 9 0.5
v 3 9 0.5
v 2 9 -0.5
v 3 9 -0.5
v 10 9 -2.5
v 11 9 -2.5
v 11 10 2.5
v 12 10 2.5
v -13 10 1.5
v -1 10 1.5
v 0 10 1.5
v 3 10 1.5
v 1 10 0.5
v 3 10 0.5
v 1 10 -0.5
v 3 10 -0.5
v -13 10 -1.5
v -1 10 -1.5
v 0 10 -1.5
v 3 10 -1.5
v 11 10 -2.5
v 12 10 -2.5
v -13 11 2.5
v 3 11 2.5
v -13 11 1.5
v 3 11 1.5
v -13 11 -1.5
v 3 11 -1.5
v -13 11 -2.5
v 3 11 -2.5
v 12 12 2.5
v 13 12 2.5
v 12 12 -2.5
v 13 12 -2.5
v 3 1 2.5
v 4 1 2.5
v 3 1 -2.5
v 4 1 -2.5
v 10 6 2.5
v 11 6 2.5
v 10 6 -2.5
v 11 6 -2.5
v 0 8 1.5
v 3 8 1.5
v 1 8 0.5
v 2 8 0.5
v 1 8 -0.5
v 2 8 -0.5
v 0 8 -1.5
v 3 8 -1.5
v -13 12 0.5
v -12 12 0.5
v -13 12 -0.5
v -12 12 -0.5
v -13 13 1.5
v -12 13 1.5
v -13 13 0.5
v -12 13 0.5
v -4 13 0.5
v -13 13 -0.5
v -12 13 -0.5
v -4 13 -0.5
v -13 13 -1.5
v -12 13 -1.5
v -13 14 2.5
v 1 14 2.5
v 2 14 2.5
v 3 14 2.5
v 4 14 2.5
v 5 14 2.5
v 6 14 2.5
v 7 14 2.5
v 8 14 2.5
v 9 14 2.5
v 10 14 2.5
v 11 14 2.5
v 12 14 2.5
v 13 14 2.5
v -13 14 1.5
v -12 14 1.5
v -4 14 1.5
v 1 14 1.5
v 2 14 1.5
v 3 14 1.5
v 4 14 1.5
v 5 14 1.5
v 6 14 1.5
v 7 14 1.5
v 8 14 1.5
v 9 14 1.5
v 10 14 1.5
v 11 14 1.5
v -12 14 0.5
v -4 14 0.5
v -3 14 0.5
v -12 14 -0.5
v -4 14 -0.5
v -3 14 -0.5
v -13 14 -1.5
v -12 14 -1.5
v -4 14 -1.5
v -1 14 -1.5
v 0 14 -1.5
v 1 14 -1.5
v 2 14 -1.5
v 3 14 -1.5
v 4 14 -1.5
v 5 14 -1.5
v 6 14 -1.5
v 7 14 -1.5
v 8 14 -1.5
v 9 14 -1.5
v 10 14 -1.5
v 11 14 -1.5
v -13 14 -2.5
v -1 14 -2.5
v 0 14 -2.5
v 1 14 -2.5
v 2 14 -2.5
v 3 14 -2.5
v 4 14 -2.5
v 5 14 -2.5
v 6 14 -2.5
v 7 14 -2.5
v 8 14 -2.5
v 9 14 -2.5
v 10 14 -2.5
v 11 14 -2.5
v 12 14 -2.5
v 13 14 -2.5

# faces
f 4/2/1 2/2/1 1/2/1
f 5/2/1 2/2/1 4/2/1
f 7/2/1 4/2/1 3/2/1
f 7/2/1 6/2/1 5/2/1
f 7/2/1 5/2/1 4/2/1
f 8/2/1 6/2/1 7/2/1
f 9/2/1 6/2/1 8/2/1
f 10/2/1 6/2/1 9/2/1
f 11/2/1 7/2/1 3/2/1
f 11/4/1 8/4/1 7/4/1
f 12/4/1 8/4/1 11/4/1
f 13/4/1 10/4/1 9/4/1
f 14/2/1 6/2/1 10/2/1
f 14/4/1 10/4/1 13/4/1
f 15/2/1 11/2/1 3/2/1
f 16/2/1 11/2/1 15/2/1
f 17/2/1 6/2/1 14/2/1
f 18/2/1 6/2/1 17/2/1
f 22/3/1 20/3/1 19/3/1
f 23/3/1 20/3/1 22/3/1
f 25/3/1 22/3/1 21/3/1
f 26/3/1 22/3/1 25/3/1
f 27/3/1 24/3/1 23/3/1
f 28/3/1 24/3/1 27/3/1
f 31/3/1 30/3/1 29/3/1
f 32/3/1 30/3/1 31/3/1
f 35/2/1 34/2/1 33/2/1
f 36/2/1 34/2/1 35/2/1
f 39/3/1 38/3/1 37/3/1
f 40/3/1 38/3/1 39/3/1
f 43/2/1 42/2/1 41/2/1
f 44/2/1 42/2/1 43/2/1
f 47/2/1 46/2/1 45/2/1
f 48/2/1 46/2/1 47/2/1
f 49/2/1 47/2/1 45/2/1
f 50/2/1 46/2/1 48/2/1
f 51/2/1 50/2/1 49/2/1
f 52/2/1 50/2/1 51/2/1
f 53/2/1 49/2/1 45/2/1
f 53/2/1 51/2/1 49/2/1
f 54/2/1 51/2/1 53/2/1
f 55/2/1 50/2/1 52/2/1
f 56/2/1 46/2/1 50/2/1
f 56/2/1 50/2/1 55/2/1
f 57/2/1 53/2/1 45/2/1
f 58/2/1 53/2/1 57/2/1
f 59/2/1 46/2/1 56/2/1
f 60/2/1 46/2/1 59/2/1
f 63/2/1 62/2/1 61/2/1
f 64/2/1 62/2/1 63/2/1
f 65/2/2 66/2/2 67/2/2
f 67/2/2 66/2/2 68/2/2
f 69/3/2 70/3/2 71/3/2
f 71/3/2 70/3/2 72/3/2
f 73/2/2 74/2/2 75/2/2
f 75/2/2 74/2/2 76/2/2
f 77/2/2 78/2/2 79/2/2
f 79/2/2 78/2/2 80/2/2
f 81/2/2 82/2/2 83/2/2
f 83/2/2 82/2/2 84/2/2
f 85/2/2 86/2/2 87/2/2
f 87/2/2 86/2/2 88/2/2
f 89/2/2 90/2/2 91/2/2
f 91/2/2 90/2/2 92/2/2
f 95/2/3 94/2/3 93/2/3
f 96/2/3 94/2/3 95/2/3
f 97/2/3 95/2/3 93/2/3
f 97/1/3 96/1/3 95/1/3
f 98/2/3 94/2/3 96/2/3
f 98/1/3 96/1/3 97/1/3
f 99/2/3 97/2/3 93/2/3
f 99/2/3 98/2/3 97/2/3
f 100/2/3 94/2/3 98/2/3
f 100/2/3 98/2/3 99/2/3
f 101/2/3 99/2/3 93/2/3
f 101/1/3 100/1/3 99/1/3
f 102/2/3 94/2/3 100/2/3
f 102/1/3 100/1/3 101/1/3
f 103/2/3 94/2/3 102/2/3
f 104/2/3 101/2/3 93/2/3
f 104/2/3 102/2/3 101/2/3
f 105/1/3 103/1/3 102/1/3
f 105/2/3 102/2/3 104/2/3
f 106/1/3 103/1/3 105/1/3
f 110/2/3 104/2/3 93/2/3
f 111/1/3 105/1/3 104/1/3
f 111/2/3 104/2/3 110/2/3
f 112/2/3 106/2/3 105/2/3
f 112/1/3 105/1/3 111/1/3
f 113/2/3 106/2/3 112/2/3
f 114/2/3 108/2/3 107/2/3
f 115/2/3 110/2/3 109/2/3
f 116/1/3 111/1/3 110/1/3
f 116/2/3 110/2/3 115/2/3
f 117/2/3 112/2/3 111/2/3
f 117/1/3 111/1/3 116/1/3
f 118/1/3 113/1/3 112/1/3
f 118/2/3 112/2/3 117/2/3
f 119/1/3 113/1/3 118/1/3
f 120/2/3 114/2/3 107/2/3
f 120/2/3 115/2/3 114/2/3
f 121/4/3 116/4/3 115/4/3
f 121/2/3 115/2/3 120/2/3
f 122/4/3 116/4/3 121/4/3
f 123/4/3 116/4/3 122/4/3
f 124/2/3 117/2/3 116/2/3
f 124/4/3 116/4/3 123/4/3
f 125/1/3 118/1/3 117/1/3
f 125/2/3 117/2/3 124/2/3
f 126/2/3 119/2/3 118/2/3
f 126/1/3 118/1/3 125/1/3
f 127/2/3 119/2/3 126/2/3
f 128/4/3 121/4/3 120/4/3
f 128/4/3 122/4/3 121/4/3
f 129/3/3 123/3/3 122/3/3
f 129/4/3 122/4/3 128/4/3
f 130/1/3 125/1/3 124/1/3
f 130/4/3 124/4/3 123/4/3
f 131/2/3 126/2/3 125/2/3
f 131/1/3 125/1/3 130/1/3
f 132/1/3 127/1/3 126/1/3
f 132/2/3 126/2/3 131/2/3
f 133/1/3 127/1/3 132/1/3
f 134/2/3 131/2/3 130/2/3
f 134/4/3 130/4/3 123/4/3
f 135/1/3 132/1/3 131/1/3
f 135/2/3 131/2/3 134/2/3
f 136/2/3 133/2/3 132/2/3
f 136/1/3 132/1/3 135/1/3
f 137/2/3 133/2/3 136/2/3
f 138/3/3 129/3/3 128/3/3
f 139/3/3 123/3/3 129/3/3
f 139/3/3 129/3/3 138/3/3
f 139/4/3 134/4/3 123/4/3
f 140/1/3 135/1/3 134/1/3
f 140/4/3 134/4/3 139/4/3
f 141/2/3 136/2/3 135/2/3
f 141/1/3 135/1/3 140/1/3
f 142/1/3 137/1/3 136/1/3
f 142/2/3 136/2/3 141/2/3
f 143/1/3 137/1/3 142/1/3
f 144/3/3 138/3/3 128/3/3
f 144/4/3 128/4/3 120/4/3
f 145/4/3 139/4/3 138/4/3
f 145/3/3 138/3/3 144/3/3
f 145/4/3 140/4/3 139/4/3
f 146/4/3 140/4/3 145/4/3
f 147/4/3 140/4/3 146/4/3
f 148/2/3 141/2/3 140/2/3
f 148/4/3 140/4/3 147/4/3
f 149/1/3 142/1/3 141/1/3
f 149/2/3 141/2/3 148/2/3
f 150/2/3 143/2/3 142/2/3
f 150/1/3 142/1/3 149/1/3
f 151/2/3 143/2/3 150/2/3
f 152/2/3 120/2/3 107/2/3
f 152/4/3 144/4/3 120/4/3
f 152/4/3 145/4/3 144/4/3
f 152/4/3 146/4/3 145/4/3
f 153/2/3 147/2/3 146/2/3
f 153/4/3 146/4/3 152/4/3
f 154/4/3 148/4/3 147/4/3
f 154/2/3 147/2/3 153/2/3
f 155/4/3 148/4/3 154/4/3
f 156/1/3 149/1/3 148/1/3
f 156/4/3 148/4/3 155/4/3
f 157/2/3 150/2/3 149/2/3
f 157/1/3 149/1/3 156/1/3
f 158/1/3 151/1/3 150/1/3
f 158/2/3 150/2/3 157/2/3
f 159/1/3 151/1/3 158/1/3
f 160/2/3 152/2/3 107/2/3
f 160/2/3 153/2/3 152/2/3
f 161/2/3 153/2/3 160/2/3
f 162/2/3 155/2/3 154/2/3
f 163/4/3 156/4/3 155/4/3
f 163/2/3 155/2/3 162/2/3
f 164/2/3 157/2/3 156/2/3
f 164/4/3 156/4/3 163/4/3
f 165/1/3 158/1/3 157/1/3
f 165/2/3 157/2/3 164/2/3
f 166/2/3 159/2/3 158/2/3
f 166/1/3 158/1/3 165/1/3
f 167/2/3 159/2/3 166/2/3
f 168/2/3 165/2/3 164/2/3
f 168/2/3 166/2/3 165/2/3
f 168/2/3 164/2/3 163/2/3
f 169/2/3 166/2/3 168/2/3
f 170/1/3 167/1/3 166/1/3
f 170/2/3 166/2/3 169/2/3
f 171/1/3 167/1/3 170/1/3
f 172/2/3 170/2/3 169/2/3
f 172/2/3 171/2/3 170/2/3
f 173/2/3 171/2/3 172/2/3
f 177/2/3 175/2/3 174/2/3
f 178/2/3 177/2/3 176/2/3
f 179/2/3 175/2/3 177/2/3
f 179/2/3 177/2/3 178/2/3
f 180/2/3 178/2/3 176/2/3
f 181/2/3 178/2/3 180/2/3
f 182/2/3 175/2/3 179/2/3
f 183/2/3 175/2/3 182/2/3
f 186/3/3 185/3/3 184/3/3
f 187/3/3 185/3/3 186/3/3
f 188/3/3 185/3/3 187/3/3
f 189/3/3 185/3/3 188/3/3
f 192/4/3 191/4/3 190/4/3
f 193/4/3 191/4/3 192/4/3
f 195/3/3 194/3/3 193/3/3
f 196/3/3 194/3/3 195/3/3
f 199/2/3 198/2/3 197/2/3
f 200/2/3 198/2/3 199/2/3
f 201/2/4 202/2/4 203/2/4
f 203/2/4 202/2/4 204/2/4
f 205/4/4 206/4/4 207/4/4
f 207/4/4 206/4/4 208/4/4
f 208/3/4 209/3/4 210/3/4
f 210/3/4 209/3/4 211/3/4
f 212/3/4 213/3/4 214/3/4
f 214/3/4 213/3/4 215/3/4
f 215/3/4 213/3/4 216/3/4
f 216/3/4 213/3/4 217/3/4
f 218/2/4 219/2/4 221/2/4
f 220/2/4 221/2/4 222/2/4
f 221/2/4 219/2/4 223/2/4
f 222/2/4 221/2/4 223/2/4
f 220/2/4 222/2/4 224/2/4
f 224/2/4 222/2/4 225/2/4
f 223/2/4 219/2/4 226/2/4
f 226/2/4 219/2/4 227/2/4
f 228/2/4 229/2/4 230/2/4
f 230/2/4 229/2/4 231/2/4
f 228/2/4 230/2/4 232/2/4
f 230/1/4 231/1/4 232/1/4
f 231/2/4 229/2/4 233/2/4
f 232/1/4 231/1/4 233/1/4
f 233/2/4 229/2/4 234/2/4
f 228/2/4 232/2/4 235/2/4
f 232/2/4 233/2/4 235/2/4
f 233/1/4 234/1/4 236/1/4
f 235/2/4 233/2/4 236/2/4
f 236/1/4 234/1/4 237/1/4
f 228/2/4 235/2/4 238/2/4
f 235/1/4 236/1/4 238/1/4
f 236/2/4 237/2/4 239/2/4
f 238/1/4 236/1/4 239/1/4
f 239/2/4 237/2/4 240/2/4
f 228/2/4 238/2/4 241/2/4
f 238/2/4 239/2/4 241/2/4
f 239/1/4 240/1/4 242/1/4
f 241/2/4 239/2/4 242/2/4
f 242/1/4 240/1/4 243/1/4
f 228/2/4 241/2/4 247/2/4
f 241/1/4 242/1/4 248/1/4
f 247/2/4 241/2/4 248/2/4
f 242/2/4 243/2/4 249/2/4
f 248/1/4 242/1/4 249/1/4
f 249/2/4 243/2/4 250/2/4
f 244/2/4 245/2/4 251/2/4
f 246/2/4 247/2/4 252/2/4
f 247/1/4 248/1/4 253/1/4
f 252/2/4 247/2/4 253/2/4
f 248/2/4 249/2/4 254/2/4
f 253/1/4 248/1/4 254/1/4
f 249/1/4 250/1/4 255/1/4
f 254/2/4 249/2/4 255/2/4
f 255/1/4 250/1/4 256/1/4
f 244/2/4 251/2/4 257/2/4
f 251/2/4 252/2/4 257/2/4
f 252/4/4 253/4/4 258/4/4
f 257/2/4 252/2/4 258/2/4
f 258/4/4 253/4/4 259/4/4
f 259/4/4 253/4/4 260/4/4
f 253/2/4 254/2/4 261/2/4
f 260/4/4 253/4/4 261/4/4
f 254/1/4 255/1/4 262/1/4
f 261/2/4 254/2/4 262/2/4
f 255/2/4 256/2/4 263/2/4
f 262/1/4 255/1/4 263/1/4
f 263/2/4 256/2/4 264/2/4
f 257/4/4 258/4/4 265/4/4
f 258/4/4 259/4/4 265/4/4
f 259/3/4 260/3/4 266/3/4
f 265/4/4 259/4/4 266/4/4
f 261/1/4 262/1/4 267/1/4
f 260/4/4 261/4/4 267/4/4
f 262/2/4 263/2/4 268/2/4
f 267/1/4 262/1/4 268/1/4
f 263/1/4 264/1/4 269/1/4
f 268/2/4 263/2/4 269/2/4
f 269/1/4 264/1/4 270/1/4
f 267/2/4 268/2/4 271/2/4
f 260/4/4 267/4/4 271/4/4
f 268/1/4 269/1/4 272/1/4
f 271/2/4 268/2/4 272/2/4
f 269/2/4 270/2/4 273/2/4
f 272/1/4 269/1/4 273/1/4
f 273/2/4 270/2/4 274/2/4
f 265/3/4 266/3/4 275/3/4
f 266/3/4 260/3/4 276/3/4
f 275/3/4 266/3/4 276/3/4
f 260/4/4 271/4/4 276/4/4
f 271/1/4 272/1/4 277/1/4
f 276/4/4 271/4/4 277/4/4
f 272/2/4 273/2/4 278/2/4
f 277/1/4 272/1/4 278/1/4
f 273/1/4 274/1/4 279/1/4
f 278/2/4 273/2/4 279/2/4
f 279/1/4 274/1/4 280/1/4
f 265/3/4 275/3/4 281/3/4
f 257/4/4 265/4/4 281/4/4
f 275/4/4 276/4/4 282/4/4
f 281/3/4 275/3/4 282/3/4
f 276/4/4 277/4/4 282/4/4
f 282/4/4 277/4/4 283/4/4
f 283/4/4 277/4/4 284/4/4
f 277/2/4 278/2/4 285/2/4
f 284/4/4 277/4/4 285/4/4
f 278/1/4 279/1/4 286/1/4
f 285/2/4 278/2/4 286/2/4
f 279/2/4 280/2/4 287/2/4
f 286/1/4 279/1/4 287/1/4
f 287/2/4 280/2/4 288/2/4
f 244/2/4 257/2/4 289/2/4
f 257/4/4 281/4/4 289/4/4
f 281/4/4 282/4/4 289/4/4
f 282/4/4 283/4/4 289/4/4
f 283/2/4 284/2/4 290/2/4
f 289/4/4 283/4/4 290/4/4
f 284/4/4 285/4/4 291/4/4
f 290/2/4 284/2/4 291/2/4
f 291/4/4 285/4/4 292/4/4
f 285/1/4 286/1/4 293/1/4
f 292/4/4 285/4/4 293/4/4
f 286/2/4 287/2/4 294/2/4
f 293/1/4 286/1/4 294/1/4
f 287/1/4 288/1/4 295/1/4
f 294/2/4 287/2/4 295/2/4
f 295/1/4 288/1/4 296/1/4
f 244/2/4 289/2/4 297/2/4
f 289/2/4 290/2/4 297/2/4
f 297/2/4 290/2/4 298/2/4
f 291/2/4 292/2/4 299/2/4
f 292/4/4 293/4/4 300/4/4
f 299/2/4 292/2/4 300/2/4
f 293/2/4 294/2/4 301/2/4
f 300/4/4 293/4/4 301/4/4
f 294/1/4 295/1/4 302/1/4
f 301/2/4 294/2/4 302/2/4
f 295/2/4 296/2/4 303/2/4
f 302/1/4 295/1/4 303/1/4
f 303/2/4 296/2/4 304/2/4
f 301/2/4 302/2/4 305/2/4
f 302/2/4 303/2/4 305/2/4
f 300/2/4 301/2/4 305/2/4
f 305/2/4 303/2/4 306/2/4
f 303/1/4 304/1/4 307/1/4
f 306/2/4 303/2/4 307/2/4
f 307/1/4 304/1/4 308/1/4
f 306/2/4 307/2/4 309/2/4
f 307/2/4 308/2/4 309/2/4
f 309/2/4 308/2/4 310/2/4
f 313/2/5 312/2/5 311/2/5
f 314/2/5 312/2/5 313/2/5
f 317/2/5 316/2/5 315/2/5
f 318/2/5 316/2/5 317/2/5
f 321/2/5 320/2/5 319/2/5
f 322/2/5 320/2/5 321/2/5
f 327/3/5 326/3/5 325/3/5
f 328/3/5 326/3/5 327/3/5
f 329/2/5 324/2/5 323/2/5
f 330/2/5 324/2/5 329/2/5
f 337/2/5 336/2/5 335/2/5
f 338/2/5 336/2/5 337/2/5
f 339/2/5 337/2/5 335/2/5
f 341/2/5 334/2/5 333/2/5
f 342/2/5 334/2/5 341/2/5
f 343/2/5 340/2/5 339/2/5
f 343/2/5 339/2/5 335/2/5
f 344/2/5 340/2/5 343/2/5
f 345/2/5 332/2/5 331/2/5
f 346/2/5 332/2/5 345/2/5
f 349/2/5 348/2/5 347/2/5
f 350/2/5 348/2/5 349/2/5
f 353/2/5 352/2/5 351/2/5
f 354/2/5 352/2/5 353/2/5
f 357/2/5 356/2/5 355/2/5
f 358/2/5 356/2/5 357/2/5
f 359/2/6 360/2/6 361/2/6
f 361/2/6 360/2/6 362/2/6
f 363/2/6 364/2/6 365/2/6
f 365/2/6 364/2/6 366/2/6
f 367/2/6 368/2/6 369/2/6
f 369/2/6 368/2/6 370/2/6
f 367/2/6 369/2/6 371/2/6
f 370/2/6 368/2/6 372/2/6
f 367/2/6 371/2/6 373/2/6
f 371/2/6 372/2/6 373/2/6
f 372/2/6 368/2/6 374/2/6
f 373/2/6 372/2/6 374/2/6
f 375/2/6 376/2/6 377/2/6
f 377/2/6 376/2/6 378/2/6
f 379/4/6 380/4/6 381/4/6
f 381/4/6 380/4/6 382/4/6
f 382/3/6 383/3/6 385/3/6
f 385/3/6 383/3/6 386/3/6
f 384/4/6 385/4/6 387/4/6
f 387/4/6 385/4/6 388/4/6
f 389/2/6 390/2/6 403/2/6
f 403/2/6 390/2/6 404/2/6
f 404/2/6 390/2/6 405/2/6
f 390/1/6 391/1/6 406/1/6
f 405/2/6 390/2/6 406/2/6
f 391/2/6 392/2/6 407/2/6
f 406/1/6 391/1/6 407/1/6
f 392/1/6 393/1/6 408/1/6
f 407/2/6 392/2/6 408/2/6
f 393/2/6 394/2/6 409/2/6
f 408/1/6 393/1/6 409/1/6
f 394/1/6 395/1/6 410/1/6
f 409/2/6 394/2/6 410/2/6
f 395/2/6 396/2/6 411/2/6
f 410/1/6 395/1/6 411/1/6
f 396/1/6 397/1/6 412/1/6
f 411/2/6 396/2/6 412/2/6
f 397/2/6 398/2/6 413/2/6
f 412/1/6 397/1/6 413/1/6
f 398/1/6 399/1/6 414/1/6
f 413/2/6 398/2/6 414/2/6
f 399/2/6 400/2/6 415/2/6
f 414/1/6 399/1/6 415/1/6
f 400/1/6 401/1/6 416/1/6
f 415/2/6 400/2/6 416/2/6
f 404/3/6 405/3/6 417/3/6
f 405/1/6 406/1/6 418/1/6
f 417/3/6 405/3/6 418/3/6
f 406/1/6 407/1/6 418/1/6
f 415/1/6 416/1/6 418/1/6
f 407/1/6 408/1/6 418/1/6
f 414/1/6 415/1/6 418/1/6
f 413/1/6 414/1/6 418/1/6
f 412/1/6 413/1/6 418/1/6
f 411/1/6 412/1/6 418/1/6
f 410/1/6 411/1/6 418/1/6
f 409/1/6 410/1/6 418/1/6
f 408/1/6 409/1/6 418/1/6
f 418/1/6 416/1/6 419/1/6
f 418/3/6 419/3/6 421/3/6
f 419/1/6 416/1/6 422/1/6
f 421/3/6 419/3/6 422/3/6
f 420/3/6 421/3/6 424/3/6
f 421/1/6 422/1/6 425/1/6
f 424/3/6 421/3/6 425/3/6
f 422/1/6 416/1/6 426/1/6
f 425/1/6 422/1/6 426/1/6
f 426/1/6 416/1/6 427/1/6
f 427/1/6 416/1/6 428/1/6
f 428/1/6 416/1/6 429/1/6
f 429/1/6 416/1/6 430/1/6
f 430/1/6 416/1/6 431/1/6
f 431/1/6 416/1/6 432/1/6
f 432/1/6 416/1/6 433/1/6
f 433/1/6 416/1/6 434/1/6
f 434/1/6 416/1/6 435/1/6
f 435/1/6 416/1/6 436/1/6
f 436/1/6 416/1/6 437/1/6
f 416/1/6 401/1/6 438/1/6
f 437/1/6 416/1/6 438/1/6
f 424/2/6 425/2/6 439/2/6
f 423/2/6 424/2/6 439/2/6
f 425/2/6 426/2/6 439/2/6
f 426/1/6 427/1/6 440/1/6
f 439/2/6 426/2/6 440/2/6
f 427/2/6 428/2/6 441/2/6
f 440/1/6 427/1/6 441/1/6
f 428/1/6 429/1/6 442/1/6
f 441/2/6 428/2/6 442/2/6
f 429/2/6 430/2/6 443/2/6
f 442/1/6 429/1/6 443/1/6
f 430/1/6 431/1/6 444/1/6
f 443/2/6 430/2/6 444/2/6
f 431/2/6 432/2/6 445/2/6
f 444/1/6 431/1/6 445/1/6
f 432/1/6 433/1/6 446/1/6
f 445/2/6 432/2/6 446/2/6
f 433/2/6 434/2/6 447/2/6
f 446/1/6 433/1/6 447/1/6
f 434/1/6 435/1/6 448/1/6
f 447/2/6 434/2/6 448/2/6
f 435/2/6 436/2/6 449/2/6
f 448/1/6 435/1/6 449/1/6
f 436/1/6 437/1/6 450/1/6
f 449/2/6 436/2/6 450/2/6
f 437/2/6 438/2/6 451/2/6
f 450/1/6 437/1/6 451/1/6
f 438/1/6 401/1/6 452/1/6
f 451/2/6 438/2/6 452/2/6
f 401/2/6 402/2/6 453/2/6
f 452/1/6 401/1/6 453/1/6
f 453/2/6 402/2/6 454/2/6
