# MagicaVoxel @ Ephtracy

# material
mtllib Sword.mtl
usemtl palette

# normals
vn -1 0 0
vn 1 0 0
vn 0 0 1
vn 0 0 -1
vn 0 -1 0
vn 0 1 0

# texcoords
vt 0.939453 0.5
vt 0.943359 0.5
vt 0.951172 0.5

# verts
v -2.5 2 2
v -2.5 2 -2
v -2.5 4 2
v -2.5 4 -2
v -1.5 1 2
v -1.5 1 -2
v -1.5 2 3
v -1.5 2 2
v -1.5 2 -2
v -1.5 2 -3
v -1.5 4 3
v -1.5 4 2
v -1.5 4 -2
v -1.5 4 -3
v -1.5 5 2
v -1.5 5 -2
v -0.5 0 1
v -0.5 0 -1
v -0.5 1 1
v -0.5 1 -1
v -0.5 5 1
v -0.5 5 -0
v -0.5 5 -1
v -0.5 22 1
v -0.5 22 -0
v -0.5 22 -1
v -0.5 23 -0
v -0.5 23 -1
v 0.5 0 1
v 0.5 0 -1
v 0.5 1 1
v 0.5 1 -1
v 0.5 5 1
v 0.5 5 -0
v 0.5 5 -1
v 0.5 22 1
v 0.5 22 -0
v 0.5 22 -1
v 0.5 23 -0
v 0.5 23 -1
v 1.5 1 2
v 1.5 1 -2
v 1.5 2 3
v 1.5 2 2
v 1.5 2 -2
v 1.5 2 -3
v 1.5 4 3
v 1.5 4 2
v 1.5 4 -2
v 1.5 4 -3
v 1.5 5 2
v 1.5 5 -2
v 2.5 2 2
v 2.5 2 -2
v 2.5 4 2
v 2.5 4 -2
v -1.5 2 3
v -1.5 4 3
v 1.5 2 3
v 1.5 4 3
v -2.5 2 2
v -2.5 4 2
v -1.5 1 2
v -1.5 2 2
v -1.5 4 2
v -1.5 5 2
v 1.5 1 2
v 1.5 2 2
v 1.5 4 2
v 1.5 5 2
v 2.5 2 2
v 2.5 4 2
v -0.5 0 1
v -0.5 1 1
v -0.5 5 1
v -0.5 22 1
v 0.5 0 1
v 0.5 1 1
v 0.5 5 1
v 0.5 22 1
v -0.5 22 -0
v -0.5 23 -0
v 0.5 22 -0
v 0.5 23 -0
v -0.5 0 -1
v -0.5 1 -1
v -0.5 5 -1
v -0.5 22 -1
v -0.5 23 -1
v 0.5 0 -1
v 0.5 1 -1
v 0.5 5 -1
v 0.5 22 -1
v 0.5 23 -1
v -2.5 2 -2
v -2.5 4 -2
v -1.5 1 -2
v -1.5 2 -2
v -1.5 4 -2
v -1.5 5 -2
v 1.5 1 -2
v 1.5 2 -2
v 1.5 4 -2
v 1.5 5 -2
v 2.5 2 -2
v 2.5 4 -2
v -1.5 2 -3
v -1.5 4 -3
v 1.5 2 -3
v 1.5 4 -3
v -0.5 0 1
v 0.5 0 1
v -0.5 0 -1
v 0.5 0 -1
v -1.5 1 2
v 1.5 1 2
v -0.5 1 1
v 0.5 1 1
v -0.5 1 -1
v 0.5 1 -1
v -1.5 1 -2
v 1.5 1 -2
v -1.5 2 3
v 1.5 2 3
v -2.5 2 2
v -1.5 2 2
v 1.5 2 2
v 2.5 2 2
v -2.5 2 -2
v -1.5 2 -2
v 1.5 2 -2
v 2.5 2 -2
v -1.5 2 -3
v 1.5 2 -3
v -1.5 4 3
v 1.5 4 3
v -2.5 4 2
v -1.5 4 2
v 1.5 4 2
v 2.5 4 2
v -2.5 4 -2
v -1.5 4 -2
v 1.5 4 -2
v 2.5 4 -2
v -1.5 4 -3
v 1.5 4 -3
v -1.5 5 2
v 1.5 5 2
v -0.5 5 1
v 0.5 5 1
v -0.5 5 -0
v 0.5 5 -0
v -0.5 5 -1
v 0.5 5 -1
v -1.5 5 -2
v 1.5 5 -2
v -0.5 22 1
v 0.5 22 1
v -0.5 22 -0
v 0.5 22 -0
v -0.5 23 -0
v 0.5 23 -0
v -0.5 23 -1
v 0.5 23 -1

# faces
f 3/3/1 2/3/1 1/3/1
f 4/3/1 2/3/1 3/3/1
f 8/3/1 6/3/1 5/3/1
f 9/3/1 6/3/1 8/3/1
f 11/3/1 8/3/1 7/3/1
f 12/3/1 8/3/1 11/3/1
f 13/3/1 10/3/1 9/3/1
f 14/3/1 10/3/1 13/3/1
f 15/1/1 13/1/1 12/1/1
f 16/1/1 13/1/1 15/1/1
f 19/1/1 18/1/1 17/1/1
f 20/1/1 18/1/1 19/1/1
f 24/2/1 22/2/1 21/2/1
f 25/1/1 23/1/1 22/1/1
f 25/2/1 22/2/1 24/2/1
f 26/1/1 23/1/1 25/1/1
f 27/2/1 26/2/1 25/2/1
f 28/2/1 26/2/1 27/2/1
f 29/1/2 30/1/2 31/1/2
f 31/1/2 30/1/2 32/1/2
f 33/2/2 34/2/2 36/2/2
f 34/1/2 35/1/2 37/1/2
f 36/2/2 34/2/2 37/2/2
f 37/1/2 35/1/2 38/1/2
f 37/2/2 38/2/2 39/2/2
f 39/2/2 38/2/2 40/2/2
f 41/3/2 42/3/2 44/3/2
f 44/3/2 42/3/2 45/3/2
f 43/3/2 44/3/2 47/3/2
f 47/3/2 44/3/2 48/3/2
f 45/3/2 46/3/2 49/3/2
f 49/3/2 46/3/2 50/3/2
f 48/1/2 49/1/2 51/1/2
f 51/1/2 49/1/2 52/1/2
f 53/3/2 54/3/2 55/3/2
f 55/3/2 54/3/2 56/3/2
f 59/3/3 58/3/3 57/3/3
f 60/3/3 58/3/3 59/3/3
f 64/3/3 62/3/3 61/3/3
f 65/3/3 62/3/3 64/3/3
f 67/3/3 64/3/3 63/3/3
f 68/3/3 64/3/3 67/3/3
f 69/1/3 66/1/3 65/1/3
f 70/1/3 66/1/3 69/1/3
f 71/3/3 69/3/3 68/3/3
f 72/3/3 69/3/3 71/3/3
f 77/1/3 74/1/3 73/1/3
f 78/1/3 74/1/3 77/1/3
f 79/2/3 76/2/3 75/2/3
f 80/2/3 76/2/3 79/2/3
f 83/2/3 82/2/3 81/2/3
f 84/2/3 82/2/3 83/2/3
f 85/1/4 86/1/4 90/1/4
f 90/1/4 86/1/4 91/1/4
f 87/1/4 88/1/4 92/1/4
f 88/2/4 89/2/4 93/2/4
f 92/1/4 88/1/4 93/1/4
f 93/2/4 89/2/4 94/2/4
f 95/3/4 96/3/4 98/3/4
f 98/3/4 96/3/4 99/3/4
f 97/3/4 98/3/4 101/3/4
f 101/3/4 98/3/4 102/3/4
f 99/1/4 100/1/4 103/1/4
f 103/1/4 100/1/4 104/1/4
f 102/3/4 103/3/4 105/3/4
f 105/3/4 103/3/4 106/3/4
f 107/3/4 108/3/4 109/3/4
f 109/3/4 108/3/4 110/3/4
f 113/1/5 112/1/5 111/1/5
f 114/1/5 112/1/5 113/1/5
f 117/3/5 116/3/5 115/3/5
f 118/3/5 116/3/5 117/3/5
f 119/3/5 117/3/5 115/3/5
f 120/3/5 116/3/5 118/3/5
f 121/3/5 119/3/5 115/3/5
f 121/3/5 120/3/5 119/3/5
f 122/3/5 116/3/5 120/3/5
f 122/3/5 120/3/5 121/3/5
f 126/3/5 124/3/5 123/3/5
f 127/3/5 124/3/5 126/3/5
f 129/3/5 126/3/5 125/3/5
f 130/3/5 126/3/5 129/3/5
f 131/3/5 128/3/5 127/3/5
f 132/3/5 128/3/5 131/3/5
f 133/3/5 131/3/5 130/3/5
f 134/3/5 131/3/5 133/3/5
f 135/3/6 136/3/6 138/3/6
f 138/3/6 136/3/6 139/3/6
f 137/3/6 138/3/6 141/3/6
f 141/3/6 138/3/6 142/3/6
f 139/3/6 140/3/6 143/3/6
f 143/3/6 140/3/6 144/3/6
f 142/3/6 143/3/6 145/3/6
f 145/3/6 143/3/6 146/3/6
f 147/1/6 148/1/6 149/1/6
f 149/1/6 148/1/6 150/1/6
f 147/1/6 149/1/6 151/1/6
f 150/1/6 148/1/6 152/1/6
f 147/1/6 151/1/6 153/1/6
f 152/1/6 148/1/6 154/1/6
f 147/1/6 153/1/6 155/1/6
f 153/1/6 154/1/6 155/1/6
f 154/1/6 148/1/6 156/1/6
f 155/1/6 154/1/6 156/1/6
f 157/2/6 158/2/6 159/2/6
f 159/2/6 158/2/6 160/2/6
f 161/2/6 162/2/6 163/2/6
f 163/2/6 162/2/6 164/2/6
